<svg xmlns="http://www.w3.org/2000/svg" width="900" height="450" class="main-svg"><path fill="#0d1117" d="M0 0H900V450H0z"/><defs><clipPath id="a" class="plotclip"><path d="M0 0H731V402H0z"/></clipPath><clipPath class="axesclip"><path d="M62 0H793V450H62z"/></clipPath><clipPath class="axesclip"><path d="M0 7H900V409H0z"/></clipPath><clipPath id="b" class="axesclip"><path d="M62 7H793V409H62z"/></clipPath></defs><g class="cartesianlayer"><g class="subplot xy"><g class="gridlayer"><g class="x"><path stroke="#0f4d00" stroke-width="1" d="M87.3 7v402M111.6 7v402M135.9 7v402M160.2 7v402M184.5 7v402M208.8 7v402M233.1 7v402M257.4 7v402M281.7 7v402M306 7v402M330.3 7v402M354.6 7v402M378.9 7v402M403.2 7v402M427.5 7v402M451.8 7v402M476.1 7v402M500.4 7v402M524.7 7v402M549 7v402M573.3 7v402M597.6 7v402M621.9 7v402M646.2 7v402M670.5 7v402M694.8 7v402M719.1 7v402M743.4 7v402M767.7 7v402" class="xgrid crisp"/></g><g class="y"><path stroke="#0f4d00" stroke-width="1" d="M62 351.57h731M62 294.14h731M62 236.71h731M62 179.29h731M62 121.86h731M62 64.43h731" class="ygrid crisp"/></g></g><g class="zerolinelayer"><path stroke="#178600" stroke-width="1" d="M62 409h731" class="yzl zl crisp"/></g><g class="plot" clip-path="url('#a')" transform="translate(62 7)"><g class="barlayer mlayer"><g class="trace bars" shape-rendering="crispEdges"><g class="points"><path fill="#3e4053" d="M4.65 402h17.01zM28.95 402h17.01zM53.25 402h17.01zM77.55 402h17.01zM101.85 402h17.01zM126.15 402v-5.97h17.01V402zM150.45 402v-10.91h17.01V402zM174.75 402h17.01zM199.05 402v-4.71h17.01V402zM223.35 402h17.01zM247.65 402v-17.92h17V402zM271.95 402v-79.83h17.01V402zM296.25 402v-3.45h17.01V402zM320.55 402h17zM344.85 402v-46.86h17V402zM369.15 402v-61.45h17.01V402zM393.45 402v-.57h17.01v.57zM417.74 402V276.69h17.01V402zM442.04 402V290.36h17.01V402zM466.35 402V227.42h17V402zM490.65 402V297.48h17V402zM514.94 402V278.41h17.01V402zM539.25 402v-23.78h17.01V402zM563.54 402V261.99h17.01V402zM587.84 402v-20.1h17.01V402zM612.15 402v-25.61h17.01V402zM636.44 402v-49.16h17.01V402zM660.75 402v-.92h17.01v.92zM685.05 402v-20.21h17.01V402zM709.34 402v-12.63h17.01V402z" vector-effect="non-scaling-stroke" class=""/></g></g><g class="trace bars" shape-rendering="crispEdges"><g class="points"><path fill="#f15854" d="M4.65 402h17.01zM28.95 402V229.25h17.01V402zM53.25 402h17.01zM77.55 402V225.23h17.01V402zM101.85 402V30.55h17.01V402zM126.15 396.03h17.01zM150.45 391.09h17.01zM174.75 402h17.01zM199.05 397.29h17.01zM223.35 402h17.01zM247.65 384.08h17zM271.95 322.17h17.01zM296.25 398.55h17.01zM320.55 402h17zM344.85 355.14h17zM369.15 340.55h17.01zM393.45 401.43h17.01zM417.74 276.69h17.01zM442.04 290.36h17.01zM466.35 227.42h17zM490.65 297.48h17zM514.94 278.41h17.01zM539.25 378.22V228.8h17.01v149.42zM563.54 261.99h17.01zM587.84 381.9h17.01zM612.15 376.39h17.01zM636.44 352.84h17.01zM660.75 401.08h17.01zM685.05 381.79h17.01zM709.34 389.37h17.01z" vector-effect="non-scaling-stroke" class=""/></g></g><g class="trace bars" shape-rendering="crispEdges"><g class="points"><path fill="#5da5da" d="M4.65 402h17.01zM28.95 229.25h17.01zM53.25 402h17.01zM77.55 225.23h17.01zM101.85 30.55h17.01zM126.15 396.03h17.01zM150.45 391.09h17.01zM174.75 402h17.01zM199.05 397.29v-9.88h17.01v9.88zM223.35 402h17.01zM247.65 384.08v-4.94h17v4.94zM271.95 322.17v-.11h17.01v.11zM296.25 398.55h17.01zM320.55 402h17zM344.85 355.14h17zM369.15 340.55h17.01zM393.45 401.43h17.01zM417.74 276.69h17.01zM442.04 290.36h17.01zM466.35 227.42h17zM490.65 297.48h17zM514.94 278.41v-.11h17.01v.11zM539.25 228.8v-81.32h17.01v81.32zM563.54 261.99v-18.26h17.01v18.26zM587.84 381.9v-2.07h17.01v2.07zM612.15 376.39v-.58h17.01v.58zM636.44 352.84v-229.6h17.01v229.6zM660.75 401.08V293h17.01v108.08zM685.05 381.79V159.42h17.01v222.37zM709.34 389.37h17.01z" vector-effect="non-scaling-stroke" class=""/></g></g><g class="trace bars" shape-rendering="crispEdges"><g class="points"><path fill="#faa43a" d="M4.65 402h17.01zM28.95 229.25h17.01zM53.25 402h17.01zM77.55 225.23h17.01zM101.85 30.55h17.01zM126.15 396.03h17.01zM150.45 391.09h17.01zM174.75 402h17.01zM199.05 387.41h17.01zM223.35 402h17.01zM247.65 379.14h17zM271.95 322.06h17.01zM296.25 398.55h17.01zM320.55 402h17zM344.85 355.14h17zM369.15 340.55h17.01zM393.45 401.43v-23.44h17.01v23.44zM417.74 276.69v-32.62h17.01v32.62zM442.04 290.36v-12.98h17.01v12.98zM466.35 227.42v-.58h17v.58zM490.65 297.48h17zM514.94 278.3h17.01zM539.25 147.48h17.01zM563.54 243.73h17.01zM587.84 379.83h17.01zM612.15 375.81h17.01zM636.44 123.24h17.01zM660.75 293h17.01zM685.05 159.42h17.01zM709.34 389.37h17.01z" vector-effect="non-scaling-stroke" class=""/></g></g><g class="trace bars" shape-rendering="crispEdges"><g class="points"><path fill="#60bd68" d="M4.65 402h17.01zM28.95 229.25h17.01zM53.25 402h17.01zM77.55 225.23h17.01zM101.85 30.55h17.01zM126.15 396.03h17.01zM150.45 391.09h17.01zM174.75 402h17.01zM199.05 387.41h17.01zM223.35 402h17.01zM247.65 379.14h17zM271.95 322.06h17.01zM296.25 398.55h17.01zM320.55 402h17zM344.85 355.14h17zM369.15 340.55v-3.67h17.01v3.67zM393.45 377.99h17.01zM417.74 244.07v-24.69h17.01v24.69zM442.04 277.38v-10.8h17.01v10.8zM466.35 226.84v-2.75h17v2.75zM490.65 297.48v-.57h17v.57zM514.94 278.3h17.01zM539.25 147.48v-.46h17.01v.46zM563.54 243.73h17.01zM587.84 379.83h17.01zM612.15 375.81h17.01zM636.44 123.24h17.01zM660.75 293h17.01zM685.05 159.42h17.01zM709.34 389.37h17.01z" vector-effect="non-scaling-stroke" class=""/></g></g><g class="trace bars" shape-rendering="crispEdges"><g class="points"><path fill="#f17cb0" d="M4.65 402h17.01zM28.95 229.25h17.01zM53.25 402h17.01zM77.55 225.23h17.01zM101.85 30.55h17.01zM126.15 396.03h17.01zM150.45 391.09v-18.26h17.01v18.26zM174.75 402h17.01zM199.05 387.41h17.01zM223.35 402h17.01zM247.65 379.14h17zM271.95 322.06h17.01zM296.25 398.55h17.01zM320.55 402h17zM344.85 355.14h17zM369.15 336.88h17.01zM393.45 377.99h17.01zM417.74 219.38h17.01zM442.04 266.58h17.01zM466.35 224.09v-14.71h17v14.71zM490.65 296.91h17zM514.94 278.3h17.01zM539.25 147.02h17.01zM563.54 243.73h17.01zM587.84 379.83h17.01zM612.15 375.81h17.01zM636.44 123.24h17.01zM660.75 293h17.01zM685.05 159.42h17.01zM709.34 389.37h17.01z" vector-effect="non-scaling-stroke" class=""/></g></g><g class="trace bars" shape-rendering="crispEdges"><g class="points"><path fill="#b2912f" d="M4.65 402h17.01zM28.95 229.25h17.01zM53.25 402h17.01zM77.55 225.23h17.01zM101.85 30.55h17.01zM126.15 396.03h17.01zM150.45 372.83h17.01zM174.75 402h17.01zM199.05 387.41h17.01zM223.35 402h17.01zM247.65 379.14h17zM271.95 322.06v-3.91h17.01v3.91zM296.25 398.55h17.01zM320.55 402h17zM344.85 355.14h17zM369.15 336.88v-14.36h17.01v14.36zM393.45 377.99h17.01zM417.74 219.38h17.01zM442.04 266.58h17.01zM466.35 209.38v-12.63h17v12.63zM490.65 296.91h17zM514.94 278.3h17.01zM539.25 147.02h17.01zM563.54 243.73h17.01zM587.84 379.83h17.01zM612.15 375.81h17.01zM636.44 123.24h17.01zM660.75 293h17.01zM685.05 159.42h17.01zM709.34 389.37h17.01z" vector-effect="non-scaling-stroke" class=""/></g></g><g class="trace bars" shape-rendering="crispEdges"><g class="points"><path fill="#decf3f" d="M4.65 402h17.01zM28.95 229.25h17.01zM53.25 402h17.01zM77.55 225.23h17.01zM101.85 30.55h17.01zM126.15 396.03h17.01zM150.45 372.83h17.01zM174.75 402h17.01zM199.05 387.41h17.01zM223.35 402h17.01zM247.65 379.14h17zM271.95 318.15h17.01zM296.25 398.55h17.01zM320.55 402h17zM344.85 355.14h17zM369.15 322.52v-2.41h17.01v2.41zM393.45 377.99h17.01zM417.74 219.38h17.01zM442.04 266.58h17.01zM466.35 196.75h17zM490.65 296.91v-.46h17v.46zM514.94 278.3h17.01zM539.25 147.02h17.01zM563.54 243.73h17.01zM587.84 379.83h17.01zM612.15 375.81h17.01zM636.44 123.24h17.01zM660.75 293h17.01zM685.05 159.42h17.01zM709.34 389.37h17.01z" vector-effect="non-scaling-stroke" class=""/></g></g><g class="trace bars" shape-rendering="crispEdges"><g class="points"><path fill="#b276b2" d="M4.65 402h17.01zM28.95 229.25h17.01zM53.25 402h17.01zM77.55 225.23h17.01zM101.85 30.55h17.01zM126.15 396.03h17.01zM150.45 372.83h17.01zM174.75 402h17.01zM199.05 387.41v-2.29h17.01v2.29zM223.35 402h17.01zM247.65 379.14h17zM271.95 318.15h17.01zM296.25 398.55h17.01zM320.55 402h17zM344.85 355.14h17zM369.15 320.11h17.01zM393.45 377.99h17.01zM417.74 219.38h17.01zM442.04 266.58h17.01zM466.35 196.75h17zM490.65 296.45h17zM514.94 278.3h17.01zM539.25 147.02h17.01zM563.54 243.73h17.01zM587.84 379.83h17.01zM612.15 375.81h17.01zM636.44 123.24h17.01zM660.75 293h17.01zM685.05 159.42h17.01zM709.34 389.37h17.01z" vector-effect="non-scaling-stroke" class=""/></g></g><g class="trace bars" shape-rendering="crispEdges"><g class="points"><path fill="#3e4053" d="M4.65 402h17.01zM28.95 229.25h17.01zM53.25 402h17.01zM77.55 225.23h17.01zM101.85 30.55h17.01zM126.15 396.03h17.01zM150.45 372.83h17.01zM174.75 402h17.01zM199.05 385.12h17.01zM223.35 402h17.01zM247.65 379.14h17zM271.95 318.15h17.01zM296.25 398.55h17.01zM320.55 402h17zM344.85 355.14h17zM369.15 320.11h17.01zM393.45 377.99h17.01zM417.74 219.38v-.92h17.01v.92zM442.04 266.58h17.01zM466.35 196.75h17zM490.65 296.45h17zM514.94 278.3h17.01zM539.25 147.02h17.01zM563.54 243.73h17.01zM587.84 379.83h17.01zM612.15 375.81h17.01zM636.44 123.24h17.01zM660.75 293h17.01zM685.05 159.42h17.01zM709.34 389.37h17.01z" vector-effect="non-scaling-stroke" class=""/></g></g><g class="trace bars" shape-rendering="crispEdges"><g class="points"><path fill="#f15854" d="M4.65 402h17.01zM28.95 229.25h17.01zM53.25 402h17.01zM77.55 225.23h17.01zM101.85 30.55h17.01zM126.15 396.03h17.01zM150.45 372.83h17.01zM174.75 402h17.01zM199.05 385.12h17.01zM223.35 402h17.01zM247.65 379.14h17zM271.95 318.15h17.01zM296.25 398.55h17.01zM320.55 402h17zM344.85 355.14h17zM369.15 320.11h17.01zM393.45 377.99h17.01zM417.74 218.46V218h17.01v.46zM442.04 266.58h17.01zM466.35 196.75h17zM490.65 296.45h17zM514.94 278.3h17.01zM539.25 147.02h17.01zM563.54 243.73h17.01zM587.84 379.83h17.01zM612.15 375.81h17.01zM636.44 123.24h17.01zM660.75 293h17.01zM685.05 159.42h17.01zM709.34 389.37h17.01z" vector-effect="non-scaling-stroke" class=""/></g></g><g class="trace bars" shape-rendering="crispEdges"><g class="points"><path fill="#5da5da" d="M4.65 402h17.01zM28.95 229.25h17.01zM53.25 402h17.01zM77.55 225.23h17.01zM101.85 30.55h17.01zM126.15 396.03h17.01zM150.45 372.83h17.01zM174.75 402h17.01zM199.05 385.12h17.01zM223.35 402h17.01zM247.65 379.14h17zM271.95 318.15h17.01zM296.25 398.55h17.01zM320.55 402h17zM344.85 355.14h17zM369.15 320.11h17.01zM393.45 377.99h17.01zM417.74 218v-.23h17.01v.23zM442.04 266.58h17.01zM466.35 196.75h17zM490.65 296.45h17zM514.94 278.3h17.01zM539.25 147.02h17.01zM563.54 243.73h17.01zM587.84 379.83h17.01zM612.15 375.81h17.01zM636.44 123.24h17.01zM660.75 293h17.01zM685.05 159.42h17.01zM709.34 389.37h17.01z" vector-effect="non-scaling-stroke" class=""/></g></g><g class="trace bars" shape-rendering="crispEdges"><g class="points"><path fill="#faa43a" d="M4.65 402h17.01zM28.95 229.25h17.01zM53.25 402h17.01zM77.55 225.23h17.01zM101.85 30.55h17.01zM126.15 396.03h17.01zM150.45 372.83h17.01zM174.75 402h17.01zM199.05 385.12h17.01zM223.35 402h17.01zM247.65 379.14h17zM271.95 318.15h17.01zM296.25 398.55h17.01zM320.55 402h17zM344.85 355.14h17zM369.15 320.11h17.01zM393.45 377.99h17.01zM417.74 217.77v-.23h17.01v.23zM442.04 266.58h17.01zM466.35 196.75h17zM490.65 296.45h17zM514.94 278.3h17.01zM539.25 147.02h17.01zM563.54 243.73h17.01zM587.84 379.83h17.01zM612.15 375.81h17.01zM636.44 123.24h17.01zM660.75 293h17.01zM685.05 159.42h17.01zM709.34 389.37h17.01z" vector-effect="non-scaling-stroke" class=""/></g></g></g></g><path fill="none" stroke="#0f4d00" stroke-width="1" d="M61.5 7v402" class="ylines-above crisp"/><g class="xaxislayer-above"><path stroke="#0f4d00" stroke-width="1" d="M63 410v4M87.3 410v4M111.6 410v4M135.9 410v4M160.2 410v4M184.5 410v4M208.8 410v4M233.1 410v4M257.4 410v4M281.7 410v4M306 410v4M330.3 410v4M354.6 410v4M378.9 410v4M403.2 410v4M427.5 410v4M451.8 410v4M476.1 410v4M500.4 410v4M524.7 410v4M549 410v4M573.3 410v4M597.6 410v4M621.9 410v4M646.2 410v4M670.5 410v4M694.8 410v4M719.1 410v4M743.4 410v4M767.7 410v4M792 410v4" class="xtick ticks crisp"/><text y="422" fill="#178600" font-family="'Open Sans',verdana,arial,sans-serif" font-size="12" text-anchor="end" transform="rotate(-45 37.57 325.29)" class="" style="white-space:pre">Jun 24</text><text y="422" fill="#178600" font-family="'Open Sans',verdana,arial,sans-serif" font-size="12" text-anchor="end" transform="rotate(-45 49.72 295.95)" class="" style="white-space:pre">Jun 25</text><text y="422" fill="#178600" font-family="'Open Sans',verdana,arial,sans-serif" font-size="12" text-anchor="end" transform="rotate(-45 61.87 266.62)" class="" style="white-space:pre">Jun 26</text><text y="422" fill="#178600" font-family="'Open Sans',verdana,arial,sans-serif" font-size="12" text-anchor="end" transform="rotate(-45 74.02 237.29)" class="" style="white-space:pre">Jun 27</text><text y="422" fill="#178600" font-family="'Open Sans',verdana,arial,sans-serif" font-size="12" text-anchor="end" transform="rotate(-45 86.17 207.96)" class="" style="white-space:pre">Jun 28</text><text y="422" fill="#178600" font-family="'Open Sans',verdana,arial,sans-serif" font-size="12" text-anchor="end" transform="rotate(-45 98.32 178.62)" class="" style="white-space:pre">Jun 29</text><text y="422" fill="#178600" font-family="'Open Sans',verdana,arial,sans-serif" font-size="12" text-anchor="end" transform="rotate(-45 110.47 149.29)" class="" style="white-space:pre">Jun 30</text><text y="422" fill="#178600" font-family="'Open Sans',verdana,arial,sans-serif" font-size="12" text-anchor="end" transform="rotate(-45 122.62 119.96)" class="" style="white-space:pre">Jul 1</text><text y="422" fill="#178600" font-family="'Open Sans',verdana,arial,sans-serif" font-size="12" text-anchor="end" transform="rotate(-45 134.78 90.62)" class="" style="white-space:pre">Jul 2</text><text y="422" fill="#178600" font-family="'Open Sans',verdana,arial,sans-serif" font-size="12" text-anchor="end" transform="rotate(-45 146.93 61.3)" class="" style="white-space:pre">Jul 3</text><text y="422" fill="#178600" font-family="'Open Sans',verdana,arial,sans-serif" font-size="12" text-anchor="end" transform="rotate(-45 159.07 31.96)" class="" style="white-space:pre">Jul 4</text><text y="422" fill="#178600" font-family="'Open Sans',verdana,arial,sans-serif" font-size="12" text-anchor="end" transform="rotate(-45 171.22 2.63)" class="" style="white-space:pre">Jul 5</text><text y="422" fill="#178600" font-family="'Open Sans',verdana,arial,sans-serif" font-size="12" text-anchor="end" transform="rotate(-45 183.38 -26.7)" class="" style="white-space:pre">Jul 6</text><text y="422" fill="#178600" font-family="'Open Sans',verdana,arial,sans-serif" font-size="12" text-anchor="end" transform="rotate(-45 195.52 -56.04)" class="" style="white-space:pre">Jul 7</text><text y="422" fill="#178600" font-family="'Open Sans',verdana,arial,sans-serif" font-size="12" text-anchor="end" transform="rotate(-45 207.68 -85.37)" class="" style="white-space:pre">Jul 8</text><text y="422" fill="#178600" font-family="'Open Sans',verdana,arial,sans-serif" font-size="12" text-anchor="end" transform="rotate(-45 219.82 -114.7)" class="" style="white-space:pre">Jul 9</text><text y="422" fill="#178600" font-family="'Open Sans',verdana,arial,sans-serif" font-size="12" text-anchor="end" transform="rotate(-45 231.97 -144.04)" class="" style="white-space:pre">Jul 10</text><text y="422" fill="#178600" font-family="'Open Sans',verdana,arial,sans-serif" font-size="12" text-anchor="end" transform="rotate(-45 244.13 -173.37)" class="" style="white-space:pre">Jul 11</text><text y="422" fill="#178600" font-family="'Open Sans',verdana,arial,sans-serif" font-size="12" text-anchor="end" transform="rotate(-45 256.27 -202.7)" class="" style="white-space:pre">Jul 12</text><text y="422" fill="#178600" font-family="'Open Sans',verdana,arial,sans-serif" font-size="12" text-anchor="end" transform="rotate(-45 268.42 -232.04)" class="" style="white-space:pre">Jul 13</text><text y="422" fill="#178600" font-family="'Open Sans',verdana,arial,sans-serif" font-size="12" text-anchor="end" transform="rotate(-45 280.57 -261.37)" class="" style="white-space:pre">Jul 14</text><text y="422" fill="#178600" font-family="'Open Sans',verdana,arial,sans-serif" font-size="12" text-anchor="end" transform="rotate(-45 292.73 -290.7)" class="" style="white-space:pre">Jul 15</text><text y="422" fill="#178600" font-family="'Open Sans',verdana,arial,sans-serif" font-size="12" text-anchor="end" transform="rotate(-45 304.88 -320.03)" class="" style="white-space:pre">Jul 16</text><text y="422" fill="#178600" font-family="'Open Sans',verdana,arial,sans-serif" font-size="12" text-anchor="end" transform="rotate(-45 317.02 -349.37)" class="" style="white-space:pre">Jul 17</text><text y="422" fill="#178600" font-family="'Open Sans',verdana,arial,sans-serif" font-size="12" text-anchor="end" transform="rotate(-45 329.18 -378.7)" class="" style="white-space:pre">Jul 18</text><text y="422" fill="#178600" font-family="'Open Sans',verdana,arial,sans-serif" font-size="12" text-anchor="end" transform="rotate(-45 341.32 -408.03)" class="" style="white-space:pre">Jul 19</text><text y="422" fill="#178600" font-family="'Open Sans',verdana,arial,sans-serif" font-size="12" text-anchor="end" transform="rotate(-45 353.48 -437.36)" class="" style="white-space:pre">Jul 20</text><text y="422" fill="#178600" font-family="'Open Sans',verdana,arial,sans-serif" font-size="12" text-anchor="end" transform="rotate(-45 365.62 -466.7)" class="" style="white-space:pre">Jul 21</text><text y="422" fill="#178600" font-family="'Open Sans',verdana,arial,sans-serif" font-size="12" text-anchor="end" transform="rotate(-45 377.77 -496.03)" class="" style="white-space:pre">Jul 22</text><text y="422" fill="#178600" font-family="'Open Sans',verdana,arial,sans-serif" font-size="12" text-anchor="end" transform="rotate(-45 389.93 -525.36)" class="" style="white-space:pre">Jul 23</text></g><g class="yaxislayer-above"><path stroke="#0f4d00" stroke-width="1" d="M61 409h-4M61 351.57h-4M61 294.14h-4M61 236.71h-4M61 179.29h-4M61 121.86h-4M61 64.43h-4M61 7h-4" class="ytick ticks crisp"/><text x="54.6" y="4.2" fill="#178600" font-family="'Open Sans',verdana,arial,sans-serif" font-size="12" text-anchor="end" transform="translate(0 409)" class="" style="white-space:pre">0</text><text x="54.6" y="4.2" fill="#178600" font-family="'Open Sans',verdana,arial,sans-serif" font-size="12" text-anchor="end" transform="translate(0 351.57)" class="" style="white-space:pre">500</text><text x="54.6" y="4.2" fill="#178600" font-family="'Open Sans',verdana,arial,sans-serif" font-size="12" text-anchor="end" transform="translate(0 294.14)" class="" style="white-space:pre">1,000</text><text x="54.6" y="4.2" fill="#178600" font-family="'Open Sans',verdana,arial,sans-serif" font-size="12" text-anchor="end" transform="translate(0 236.71)" class="" style="white-space:pre">1,500</text><text x="54.6" y="4.2" fill="#178600" font-family="'Open Sans',verdana,arial,sans-serif" font-size="12" text-anchor="end" transform="translate(0 179.29)" class="" style="white-space:pre">2,000</text><text x="54.6" y="4.2" fill="#178600" font-family="'Open Sans',verdana,arial,sans-serif" font-size="12" text-anchor="end" transform="translate(0 121.86)" class="" style="white-space:pre">2,500</text><text x="54.6" y="4.2" fill="#178600" font-family="'Open Sans',verdana,arial,sans-serif" font-size="12" text-anchor="end" transform="translate(0 64.43)" class="" style="white-space:pre">3,000</text><text x="54.6" y="4.2" fill="#178600" font-family="'Open Sans',verdana,arial,sans-serif" font-size="12" text-anchor="end" transform="translate(0 7)" class="" style="white-space:pre">3,500</text></g></g></g><defs><clipPath id="c"><path d="M0 0H107V257H0z"/></clipPath></defs><g class="layer-above"><path fill="none" stroke="#0f4d00" stroke-width="2" d="M63 7h729" clip-path="url('#b')" data-index="0" class=""/></g><g class="infolayer"><g class="legend" pointer-events="all" transform="translate(793 7)"><path fill="#0d1117" d="M0 0H107V257H0z" class="bg" shape-rendering="crispEdges"/><g class="scrollbox" clip-path="url('#c')"><g class="groups"><g class="traces" transform="translate(0 14.5)"><text x="40" y="4.68" class="legendtext user-select-none" style="white-space:pre" fill="#178600" font-family="'Open Sans',verdana,arial,sans-serif" font-size="12">zsh</text><g class="layers"><g class="legendsymbols"><g class="legendpoints"><path fill="#3e4053" d="M26 6H14V-6h12z" class="legendundefined"/></g></g></g><path fill="none" d="M0 -9.5H101.97V9.5H0z" class="legendtoggle" cursor="pointer"/></g><g class="traces" transform="translate(0 33.5)"><text x="40" y="4.68" class="legendtext user-select-none" style="white-space:pre" fill="#178600" font-family="'Open Sans',verdana,arial,sans-serif" font-size="12">Go</text><g class="layers"><g class="legendsymbols"><g class="legendpoints"><path fill="#f15854" d="M26 6H14V-6h12z" class="legendundefined"/></g></g></g><path fill="none" d="M0 -9.5H101.97V9.5H0z" class="legendtoggle" cursor="pointer"/></g><g class="traces" transform="translate(0 52.5)"><text x="40" y="4.68" class="legendtext user-select-none" style="white-space:pre" fill="#178600" font-family="'Open Sans',verdana,arial,sans-serif" font-size="12">Markdown</text><g class="layers"><g class="legendsymbols"><g class="legendpoints"><path fill="#5da5da" d="M26 6H14V-6h12z" class="legendundefined"/></g></g></g><path fill="none" d="M0 -9.5H101.97V9.5H0z" class="legendtoggle" cursor="pointer"/></g><g class="traces" transform="translate(0 71.5)"><text x="40" y="4.68" class="legendtext user-select-none" style="white-space:pre" fill="#178600" font-family="'Open Sans',verdana,arial,sans-serif" font-size="12">nix</text><g class="layers"><g class="legendsymbols"><g class="legendpoints"><path fill="#faa43a" d="M26 6H14V-6h12z" class="legendundefined"/></g></g></g><path fill="none" d="M0 -9.5H101.97V9.5H0z" class="legendtoggle" cursor="pointer"/></g><g class="traces" transform="translate(0 90.5)"><text x="40" y="4.68" class="legendtext user-select-none" style="white-space:pre" fill="#178600" font-family="'Open Sans',verdana,arial,sans-serif" font-size="12">JSON</text><g class="layers"><g class="legendsymbols"><g class="legendpoints"><path fill="#60bd68" d="M26 6H14V-6h12z" class="legendundefined"/></g></g></g><path fill="none" d="M0 -9.5H101.97V9.5H0z" class="legendtoggle" cursor="pointer"/></g><g class="traces" transform="translate(0 109.5)"><text x="40" y="4.68" class="legendtext user-select-none" style="white-space:pre" fill="#178600" font-family="'Open Sans',verdana,arial,sans-serif" font-size="12">Kotlin</text><g class="layers"><g class="legendsymbols"><g class="legendpoints"><path fill="#f17cb0" d="M26 6H14V-6h12z" class="legendundefined"/></g></g></g><path fill="none" d="M0 -9.5H101.97V9.5H0z" class="legendtoggle" cursor="pointer"/></g><g class="traces" transform="translate(0 128.5)"><text x="40" y="4.68" class="legendtext user-select-none" style="white-space:pre" fill="#178600" font-family="'Open Sans',verdana,arial,sans-serif" font-size="12">Python</text><g class="layers"><g class="legendsymbols"><g class="legendpoints"><path fill="#b2912f" d="M26 6H14V-6h12z" class="legendundefined"/></g></g></g><path fill="none" d="M0 -9.5H101.97V9.5H0z" class="legendtoggle" cursor="pointer"/></g><g class="traces" transform="translate(0 147.5)"><text x="40" y="4.68" class="legendtext user-select-none" style="white-space:pre" fill="#178600" font-family="'Open Sans',verdana,arial,sans-serif" font-size="12">text</text><g class="layers"><g class="legendsymbols"><g class="legendpoints"><path fill="#decf3f" d="M26 6H14V-6h12z" class="legendundefined"/></g></g></g><path fill="none" d="M0 -9.5H101.97V9.5H0z" class="legendtoggle" cursor="pointer"/></g><g class="traces" transform="translate(0 166.5)"><text x="40" y="4.68" class="legendtext user-select-none" style="white-space:pre" fill="#178600" font-family="'Open Sans',verdana,arial,sans-serif" font-size="12">desktop</text><g class="layers"><g class="legendsymbols"><g class="legendpoints"><path fill="#b276b2" d="M26 6H14V-6h12z" class="legendundefined"/></g></g></g><path fill="none" d="M0 -9.5H101.97V9.5H0z" class="legendtoggle" cursor="pointer"/></g><g class="traces" transform="translate(0 185.5)"><text x="40" y="4.68" class="legendtext user-select-none" style="white-space:pre" fill="#178600" font-family="'Open Sans',verdana,arial,sans-serif" font-size="12">fish</text><g class="layers"><g class="legendsymbols"><g class="legendpoints"><path fill="#3e4053" d="M26 6H14V-6h12z" class="legendundefined"/></g></g></g><path fill="none" d="M0 -9.5H101.97V9.5H0z" class="legendtoggle" cursor="pointer"/></g><g class="traces" transform="translate(0 204.5)"><text x="40" y="4.68" class="legendtext user-select-none" style="white-space:pre" fill="#178600" font-family="'Open Sans',verdana,arial,sans-serif" font-size="12">Bash</text><g class="layers"><g class="legendsymbols"><g class="legendpoints"><path fill="#f15854" d="M26 6H14V-6h12z" class="legendundefined"/></g></g></g><path fill="none" d="M0 -9.5H101.97V9.5H0z" class="legendtoggle" cursor="pointer"/></g><g class="traces" transform="translate(0 223.5)"><text x="40" y="4.68" class="legendtext user-select-none" style="white-space:pre" fill="#178600" font-family="'Open Sans',verdana,arial,sans-serif" font-size="12">netrw</text><g class="layers"><g class="legendsymbols"><g class="legendpoints"><path fill="#5da5da" d="M26 6H14V-6h12z" class="legendundefined"/></g></g></g><path fill="none" d="M0 -9.5H101.97V9.5H0z" class="legendtoggle" cursor="pointer"/></g><g class="traces" transform="translate(0 242.5)"><text x="40" y="4.68" class="legendtext user-select-none" style="white-space:pre" fill="#178600" font-family="'Open Sans',verdana,arial,sans-serif" font-size="12">lazy</text><g class="layers"><g class="legendsymbols"><g class="legendpoints"><path fill="#faa43a" d="M26 6H14V-6h12z" class="legendundefined"/></g></g></g><path fill="none" d="M0 -9.5H101.97V9.5H0z" class="legendtoggle" cursor="pointer"/></g></g></g></g><g class="g-ytitle"><text x=".43" y="208" fill="#178600" class="ytitle" font-family="'Open Sans',verdana,arial,sans-serif" font-size="14" font-weight="400" text-anchor="middle" transform="translate(12.57) rotate(-90 .43 208)" style="white-space:pre">XP</text></g></g></svg>
