<svg xmlns="http://www.w3.org/2000/svg" width="900" height="450" class="main-svg"><path fill="#0d1117" d="M0 0H900V450H0z"/><defs><clipPath id="a" class="plotclip"><path d="M0 0H724V402H0z"/></clipPath><clipPath class="axesclip"><path d="M62 0H786V450H62z"/></clipPath><clipPath class="axesclip"><path d="M0 7H900V409H0z"/></clipPath><clipPath id="b" class="axesclip"><path d="M62 7H786V409H62z"/></clipPath></defs><g class="cartesianlayer"><g class="subplot xy"><g class="gridlayer"><g class="x"><path stroke="#0f4d00" stroke-width="1" d="M87.07 7v402M111.13 7v402M135.2 7v402M159.27 7v402M183.33 7v402M207.4 7v402M231.47 7v402M255.53 7v402M279.6 7v402M303.67 7v402M327.73 7v402M351.8 7v402M375.87 7v402M399.93 7v402M424 7v402M448.07 7v402M472.13 7v402M496.2 7v402M520.27 7v402M544.33 7v402M568.4 7v402M592.47 7v402M616.53 7v402M640.6 7v402M664.67 7v402M688.73 7v402M712.8 7v402M736.87 7v402M760.93 7v402" class="xgrid crisp"/></g><g class="y"><path stroke="#0f4d00" stroke-width="1" d="M62 351.57h724M62 294.14h724M62 236.71h724M62 179.29h724M62 121.86h724M62 64.43h724" class="ygrid crisp"/></g></g><g class="zerolinelayer"><path stroke="#178600" stroke-width="1" d="M62 409h724" class="yzl zl crisp"/></g><g class="plot" clip-path="url('#a')" transform="translate(62 7)"><g class="barlayer mlayer"><g class="trace bars" shape-rendering="crispEdges"><g class="points"><path fill="#3e4053" d="M4.61 402v-69.14h16.85V402zM28.68 402v-18.15h16.84V402zM52.74 402v-22.63h16.85V402zM76.81 402v-3.45h16.85V402zM100.88 402h16.84zM124.94 402h16.85zM149.01 402h16.85zM173.08 402h16.84zM197.14 402v-5.97h16.85V402zM221.21 402v-10.91h16.85V402zM245.28 402h16.84zM269.34 402v-4.71h16.85V402zM293.41 402h16.85zM317.48 402v-17.92h16.84V402zM341.54 402v-79.83h16.85V402zM365.61 402v-3.45h16.85V402zM389.68 402h16.84zM413.74 402v-46.86h16.85V402zM437.81 402v-61.45h16.85V402zM461.88 402v-.57h16.84v.57zM485.94 402V276.69h16.85V402zM510.01 402V290.36h16.85V402zM534.08 402V227.42h16.84V402zM558.14 402V297.48h16.85V402zM582.21 402V278.41h16.85V402zM606.28 402v-23.78h16.84V402zM630.34 402V261.99h16.85V402zM654.41 402v-20.1h16.85V402zM678.48 402v-25.61h16.84V402zM702.54 402v-38.36h16.85V402z" vector-effect="non-scaling-stroke" class=""/></g></g><g class="trace bars" shape-rendering="crispEdges"><g class="points"><path fill="#f15854" d="M4.61 332.86h16.85zM28.68 383.85h16.84zM52.74 379.37h16.85zM76.81 398.55h16.85zM100.88 402V229.25h16.84V402zM124.94 402h16.85zM149.01 402V225.23h16.85V402zM173.08 402V30.55h16.84V402zM197.14 396.03h16.85zM221.21 391.09h16.85zM245.28 402h16.84zM269.34 397.29h16.85zM293.41 402h16.85zM317.48 384.08h16.84zM341.54 322.17h16.85zM365.61 398.55h16.85zM389.68 402h16.84zM413.74 355.14h16.85zM437.81 340.55h16.85zM461.88 401.43h16.84zM485.94 276.69h16.85zM510.01 290.36h16.85zM534.08 227.42h16.84zM558.14 297.48h16.85zM582.21 278.41h16.85zM606.28 378.22V228.8h16.84v149.42zM630.34 261.99h16.85zM654.41 381.9h16.85zM678.48 376.39h16.84zM702.54 363.64h16.85z" vector-effect="non-scaling-stroke" class=""/></g></g><g class="trace bars" shape-rendering="crispEdges"><g class="points"><path fill="#5da5da" d="M4.61 332.86h16.85zM28.68 383.85h16.84zM52.74 379.37h16.85zM76.81 398.55h16.85zM100.88 229.25h16.84zM124.94 402h16.85zM149.01 225.23h16.85zM173.08 30.55h16.84zM197.14 396.03h16.85zM221.21 391.09h16.85zM245.28 402h16.84zM269.34 397.29v-9.88h16.85v9.88zM293.41 402h16.85zM317.48 384.08v-4.94h16.84v4.94zM341.54 322.17v-.11h16.85v.11zM365.61 398.55h16.85zM389.68 402h16.84zM413.74 355.14h16.85zM437.81 340.55h16.85zM461.88 401.43h16.84zM485.94 276.69h16.85zM510.01 290.36h16.85zM534.08 227.42h16.84zM558.14 297.48h16.85zM582.21 278.41v-.11h16.85v.11zM606.28 228.8v-81.32h16.84v81.32zM630.34 261.99v-18.26h16.85v18.26zM654.41 381.9v-2.07h16.85v2.07zM678.48 376.39v-.58h16.84v.58zM702.54 363.64v-188.6h16.85v188.6z" vector-effect="non-scaling-stroke" class=""/></g></g><g class="trace bars" shape-rendering="crispEdges"><g class="points"><path fill="#faa43a" d="M4.61 332.86h16.85zM28.68 383.85h16.84zM52.74 379.37h16.85zM76.81 398.55h16.85zM100.88 229.25h16.84zM124.94 402h16.85zM149.01 225.23h16.85zM173.08 30.55h16.84zM197.14 396.03h16.85zM221.21 391.09h16.85zM245.28 402h16.84zM269.34 387.41h16.85zM293.41 402h16.85zM317.48 379.14h16.84zM341.54 322.06h16.85zM365.61 398.55h16.85zM389.68 402h16.84zM413.74 355.14h16.85zM437.81 340.55h16.85zM461.88 401.43v-23.44h16.84v23.44zM485.94 276.69v-32.62h16.85v32.62zM510.01 290.36v-12.98h16.85v12.98zM534.08 227.42v-.58h16.84v.58zM558.14 297.48h16.85zM582.21 278.3h16.85zM606.28 147.48h16.84zM630.34 243.73h16.85zM654.41 379.83h16.85zM678.48 375.81h16.84zM702.54 175.04h16.85z" vector-effect="non-scaling-stroke" class=""/></g></g><g class="trace bars" shape-rendering="crispEdges"><g class="points"><path fill="#60bd68" d="M4.61 332.86v-14.13h16.85v14.13zM28.68 383.85h16.84zM52.74 379.37h16.85zM76.81 398.55h16.85zM100.88 229.25h16.84zM124.94 402h16.85zM149.01 225.23h16.85zM173.08 30.55h16.84zM197.14 396.03h16.85zM221.21 391.09h16.85zM245.28 402h16.84zM269.34 387.41h16.85zM293.41 402h16.85zM317.48 379.14h16.84zM341.54 322.06h16.85zM365.61 398.55h16.85zM389.68 402h16.84zM413.74 355.14h16.85zM437.81 340.55v-3.67h16.85v3.67zM461.88 377.99h16.84zM485.94 244.07v-24.69h16.85v24.69zM510.01 277.38v-10.8h16.85v10.8zM534.08 226.84v-2.75h16.84v2.75zM558.14 297.48v-.57h16.85v.57zM582.21 278.3h16.85zM606.28 147.48v-.46h16.84v.46zM630.34 243.73h16.85zM654.41 379.83h16.85zM678.48 375.81h16.84zM702.54 175.04h16.85z" vector-effect="non-scaling-stroke" class=""/></g></g><g class="trace bars" shape-rendering="crispEdges"><g class="points"><path fill="#f17cb0" d="M4.61 318.73v-8.39h16.85v8.39zM28.68 383.85v-.69h16.84v.69zM52.74 379.37h16.85zM76.81 398.55h16.85zM100.88 229.25h16.84zM124.94 402h16.85zM149.01 225.23h16.85zM173.08 30.55h16.84zM197.14 396.03h16.85zM221.21 391.09h16.85zM245.28 402h16.84zM269.34 387.41h16.85zM293.41 402h16.85zM317.48 379.14h16.84zM341.54 322.06v-3.91h16.85v3.91zM365.61 398.55h16.85zM389.68 402h16.84zM413.74 355.14h16.85zM437.81 336.88v-14.36h16.85v14.36zM461.88 377.99h16.84zM485.94 219.38h16.85zM510.01 266.58h16.85zM534.08 224.09v-12.64h16.84v12.64zM558.14 296.91h16.85zM582.21 278.3h16.85zM606.28 147.02h16.84zM630.34 243.73h16.85zM654.41 379.83h16.85zM678.48 375.81h16.84zM702.54 175.04h16.85z" vector-effect="non-scaling-stroke" class=""/></g></g><g class="trace bars" shape-rendering="crispEdges"><g class="points"><path fill="#b2912f" d="M4.61 310.34h16.85zM28.68 383.16h16.84zM52.74 379.37h16.85zM76.81 398.55h16.85zM100.88 229.25h16.84zM124.94 402h16.85zM149.01 225.23h16.85zM173.08 30.55h16.84zM197.14 396.03h16.85zM221.21 391.09v-18.26h16.85v18.26zM245.28 402h16.84zM269.34 387.41h16.85zM293.41 402h16.85zM317.48 379.14h16.84zM341.54 318.15h16.85zM365.61 398.55h16.85zM389.68 402h16.84zM413.74 355.14h16.85zM437.81 322.52h16.85zM461.88 377.99h16.84zM485.94 219.38h16.85zM510.01 266.58h16.85zM534.08 211.45v-14.7h16.84v14.7zM558.14 296.91h16.85zM582.21 278.3h16.85zM606.28 147.02h16.84zM630.34 243.73h16.85zM654.41 379.83h16.85zM678.48 375.81h16.84zM702.54 175.04h16.85z" vector-effect="non-scaling-stroke" class=""/></g></g><g class="trace bars" shape-rendering="crispEdges"><g class="points"><path fill="#decf3f" d="M4.61 310.34v-14.35h16.85v14.35zM28.68 383.16h16.84zM52.74 379.37h16.85zM76.81 398.55h16.85zM100.88 229.25h16.84zM124.94 402h16.85zM149.01 225.23h16.85zM173.08 30.55h16.84zM197.14 396.03h16.85zM221.21 372.83h16.85zM245.28 402h16.84zM269.34 387.41h16.85zM293.41 402h16.85zM317.48 379.14h16.84zM341.54 318.15h16.85zM365.61 398.55h16.85zM389.68 402h16.84zM413.74 355.14h16.85zM437.81 322.52h16.85zM461.88 377.99h16.84zM485.94 219.38h16.85zM510.01 266.58h16.85zM534.08 196.75h16.84zM558.14 296.91h16.85zM582.21 278.3h16.85zM606.28 147.02h16.84zM630.34 243.73h16.85zM654.41 379.83h16.85zM678.48 375.81h16.84zM702.54 175.04h16.85z" vector-effect="non-scaling-stroke" class=""/></g></g><g class="trace bars" shape-rendering="crispEdges"><g class="points"><path fill="#b276b2" d="M4.61 295.99h16.85zM28.68 383.16h16.84zM52.74 379.37h16.85zM76.81 398.55h16.85zM100.88 229.25h16.84zM124.94 402h16.85zM149.01 225.23h16.85zM173.08 30.55h16.84zM197.14 396.03h16.85zM221.21 372.83h16.85zM245.28 402h16.84zM269.34 387.41h16.85zM293.41 402h16.85zM317.48 379.14h16.84zM341.54 318.15h16.85zM365.61 398.55h16.85zM389.68 402h16.84zM413.74 355.14h16.85zM437.81 322.52v-2.41h16.85v2.41zM461.88 377.99h16.84zM485.94 219.38h16.85zM510.01 266.58h16.85zM534.08 196.75h16.84zM558.14 296.91v-.46h16.85v.46zM582.21 278.3h16.85zM606.28 147.02h16.84zM630.34 243.73h16.85zM654.41 379.83h16.85zM678.48 375.81h16.84zM702.54 175.04h16.85z" vector-effect="non-scaling-stroke" class=""/></g></g><g class="trace bars" shape-rendering="crispEdges"><g class="points"><path fill="#3e4053" d="M4.61 295.99v-.46h16.85v.46zM28.68 383.16h16.84zM52.74 379.37v-2.06h16.85v2.06zM76.81 398.55h16.85zM100.88 229.25h16.84zM124.94 402h16.85zM149.01 225.23h16.85zM173.08 30.55h16.84zM197.14 396.03h16.85zM221.21 372.83h16.85zM245.28 402h16.84zM269.34 387.41h16.85zM293.41 402h16.85zM317.48 379.14h16.84zM341.54 318.15h16.85zM365.61 398.55h16.85zM389.68 402h16.84zM413.74 355.14h16.85zM437.81 320.11h16.85zM461.88 377.99h16.84zM485.94 219.38h16.85zM510.01 266.58h16.85zM534.08 196.75h16.84zM558.14 296.45h16.85zM582.21 278.3h16.85zM606.28 147.02h16.84zM630.34 243.73h16.85zM654.41 379.83h16.85zM678.48 375.81h16.84zM702.54 175.04h16.85z" vector-effect="non-scaling-stroke" class=""/></g></g><g class="trace bars" shape-rendering="crispEdges"><g class="points"><path fill="#f15854" d="M4.61 295.53V293h16.85v2.53zM28.68 383.16h16.84zM52.74 377.31h16.85zM76.81 398.55h16.85zM100.88 229.25h16.84zM124.94 402h16.85zM149.01 225.23h16.85zM173.08 30.55h16.84zM197.14 396.03h16.85zM221.21 372.83h16.85zM245.28 402h16.84zM269.34 387.41h16.85zM293.41 402h16.85zM317.48 379.14h16.84zM341.54 318.15h16.85zM365.61 398.55h16.85zM389.68 402h16.84zM413.74 355.14h16.85zM437.81 320.11h16.85zM461.88 377.99h16.84zM485.94 219.38h16.85zM510.01 266.58h16.85zM534.08 196.75h16.84zM558.14 296.45h16.85zM582.21 278.3h16.85zM606.28 147.02h16.84zM630.34 243.73h16.85zM654.41 379.83h16.85zM678.48 375.81h16.84zM702.54 175.04h16.85z" vector-effect="non-scaling-stroke" class=""/></g></g><g class="trace bars" shape-rendering="crispEdges"><g class="points"><path fill="#5da5da" d="M4.61 293h16.85zM28.68 383.16h16.84zM52.74 377.31h16.85zM76.81 398.55h16.85zM100.88 229.25h16.84zM124.94 402h16.85zM149.01 225.23h16.85zM173.08 30.55h16.84zM197.14 396.03h16.85zM221.21 372.83h16.85zM245.28 402h16.84zM269.34 387.41v-2.29h16.85v2.29zM293.41 402h16.85zM317.48 379.14h16.84zM341.54 318.15h16.85zM365.61 398.55h16.85zM389.68 402h16.84zM413.74 355.14h16.85zM437.81 320.11h16.85zM461.88 377.99h16.84zM485.94 219.38h16.85zM510.01 266.58h16.85zM534.08 196.75h16.84zM558.14 296.45h16.85zM582.21 278.3h16.85zM606.28 147.02h16.84zM630.34 243.73h16.85zM654.41 379.83h16.85zM678.48 375.81h16.84zM702.54 175.04h16.85z" vector-effect="non-scaling-stroke" class=""/></g></g><g class="trace bars" shape-rendering="crispEdges"><g class="points"><path fill="#faa43a" d="M4.61 293v-2.07h16.85V293zM28.68 383.16h16.84zM52.74 377.31h16.85zM76.81 398.55h16.85zM100.88 229.25h16.84zM124.94 402h16.85zM149.01 225.23h16.85zM173.08 30.55h16.84zM197.14 396.03h16.85zM221.21 372.83h16.85zM245.28 402h16.84zM269.34 385.12h16.85zM293.41 402h16.85zM317.48 379.14h16.84zM341.54 318.15h16.85zM365.61 398.55h16.85zM389.68 402h16.84zM413.74 355.14h16.85zM437.81 320.11h16.85zM461.88 377.99h16.84zM485.94 219.38h16.85zM510.01 266.58h16.85zM534.08 196.75h16.84zM558.14 296.45h16.85zM582.21 278.3h16.85zM606.28 147.02h16.84zM630.34 243.73h16.85zM654.41 379.83h16.85zM678.48 375.81h16.84zM702.54 175.04h16.85z" vector-effect="non-scaling-stroke" class=""/></g></g><g class="trace bars" shape-rendering="crispEdges"><g class="points"><path fill="#60bd68" d="M4.61 290.93v-1.6h16.85v1.6zM28.68 383.16h16.84zM52.74 377.31h16.85zM76.81 398.55h16.85zM100.88 229.25h16.84zM124.94 402h16.85zM149.01 225.23h16.85zM173.08 30.55h16.84zM197.14 396.03h16.85zM221.21 372.83h16.85zM245.28 402h16.84zM269.34 385.12h16.85zM293.41 402h16.85zM317.48 379.14h16.84zM341.54 318.15h16.85zM365.61 398.55h16.85zM389.68 402h16.84zM413.74 355.14h16.85zM437.81 320.11h16.85zM461.88 377.99h16.84zM485.94 219.38h16.85zM510.01 266.58h16.85zM534.08 196.75h16.84zM558.14 296.45h16.85zM582.21 278.3h16.85zM606.28 147.02h16.84zM630.34 243.73h16.85zM654.41 379.83h16.85zM678.48 375.81h16.84zM702.54 175.04h16.85z" vector-effect="non-scaling-stroke" class=""/></g></g><g class="trace bars" shape-rendering="crispEdges"><g class="points"><path fill="#f17cb0" d="M4.61 289.33v-.81h16.85v.81zM28.68 383.16h16.84zM52.74 377.31h16.85zM76.81 398.55h16.85zM100.88 229.25h16.84zM124.94 402h16.85zM149.01 225.23h16.85zM173.08 30.55h16.84zM197.14 396.03h16.85zM221.21 372.83h16.85zM245.28 402h16.84zM269.34 385.12h16.85zM293.41 402h16.85zM317.48 379.14h16.84zM341.54 318.15h16.85zM365.61 398.55h16.85zM389.68 402h16.84zM413.74 355.14h16.85zM437.81 320.11h16.85zM461.88 377.99h16.84zM485.94 219.38v-.23h16.85v.23zM510.01 266.58h16.85zM534.08 196.75h16.84zM558.14 296.45h16.85zM582.21 278.3h16.85zM606.28 147.02h16.84zM630.34 243.73h16.85zM654.41 379.83h16.85zM678.48 375.81h16.84zM702.54 175.04h16.85z" vector-effect="non-scaling-stroke" class=""/></g></g><g class="trace bars" shape-rendering="crispEdges"><g class="points"><path fill="#b2912f" d="M4.61 288.52v-.57h16.85v.57zM28.68 383.16h16.84zM52.74 377.31h16.85zM76.81 398.55h16.85zM100.88 229.25h16.84zM124.94 402h16.85zM149.01 225.23h16.85zM173.08 30.55h16.84zM197.14 396.03h16.85zM221.21 372.83h16.85zM245.28 402h16.84zM269.34 385.12h16.85zM293.41 402h16.85zM317.48 379.14h16.84zM341.54 318.15h16.85zM365.61 398.55h16.85zM389.68 402h16.84zM413.74 355.14h16.85zM437.81 320.11h16.85zM461.88 377.99h16.84zM485.94 219.15v-1.61h16.85v1.61zM510.01 266.58h16.85zM534.08 196.75h16.84zM558.14 296.45h16.85zM582.21 278.3h16.85zM606.28 147.02h16.84zM630.34 243.73h16.85zM654.41 379.83h16.85zM678.48 375.81h16.84zM702.54 175.04h16.85z" vector-effect="non-scaling-stroke" class=""/></g></g></g></g><path fill="none" stroke="#0f4d00" stroke-width="1" d="M61.5 7v402" class="ylines-above crisp"/><g class="xaxislayer-above"><path stroke="#0f4d00" stroke-width="1" d="M63 410v4M87.07 410v4M111.13 410v4M135.2 410v4M159.27 410v4M183.33 410v4M207.4 410v4M231.47 410v4M255.53 410v4M279.6 410v4M303.67 410v4M327.73 410v4M351.8 410v4M375.87 410v4M399.93 410v4M424 410v4M448.07 410v4M472.13 410v4M496.2 410v4M520.27 410v4M544.33 410v4M568.4 410v4M592.47 410v4M616.53 410v4M640.6 410v4M664.67 410v4M688.73 410v4M712.8 410v4M736.87 410v4M760.93 410v4M785 410v4" class="xtick ticks crisp"/><text y="422" fill="#178600" font-family="'Open Sans',verdana,arial,sans-serif" font-size="12" text-anchor="end" transform="rotate(-45 37.51 325.43)" class="" style="white-space:pre">Jun 21</text><text y="422" fill="#178600" font-family="'Open Sans',verdana,arial,sans-serif" font-size="12" text-anchor="end" transform="rotate(-45 49.55 296.38)" class="" style="white-space:pre">Jun 22</text><text y="422" fill="#178600" font-family="'Open Sans',verdana,arial,sans-serif" font-size="12" text-anchor="end" transform="rotate(-45 61.59 267.32)" class="" style="white-space:pre">Jun 23</text><text y="422" fill="#178600" font-family="'Open Sans',verdana,arial,sans-serif" font-size="12" text-anchor="end" transform="rotate(-45 73.61 238.28)" class="" style="white-space:pre">Jun 24</text><text y="422" fill="#178600" font-family="'Open Sans',verdana,arial,sans-serif" font-size="12" text-anchor="end" transform="rotate(-45 85.65 209.22)" class="" style="white-space:pre">Jun 25</text><text y="422" fill="#178600" font-family="'Open Sans',verdana,arial,sans-serif" font-size="12" text-anchor="end" transform="rotate(-45 97.68 180.17)" class="" style="white-space:pre">Jun 26</text><text y="422" fill="#178600" font-family="'Open Sans',verdana,arial,sans-serif" font-size="12" text-anchor="end" transform="rotate(-45 109.71 151.12)" class="" style="white-space:pre">Jun 27</text><text y="422" fill="#178600" font-family="'Open Sans',verdana,arial,sans-serif" font-size="12" text-anchor="end" transform="rotate(-45 121.75 122.07)" class="" style="white-space:pre">Jun 28</text><text y="422" fill="#178600" font-family="'Open Sans',verdana,arial,sans-serif" font-size="12" text-anchor="end" transform="rotate(-45 133.78 93.01)" class="" style="white-space:pre">Jun 29</text><text y="422" fill="#178600" font-family="'Open Sans',verdana,arial,sans-serif" font-size="12" text-anchor="end" transform="rotate(-45 145.81 63.97)" class="" style="white-space:pre">Jun 30</text><text y="422" fill="#178600" font-family="'Open Sans',verdana,arial,sans-serif" font-size="12" text-anchor="end" transform="rotate(-45 157.85 34.92)" class="" style="white-space:pre">Jul 1</text><text y="422" fill="#178600" font-family="'Open Sans',verdana,arial,sans-serif" font-size="12" text-anchor="end" transform="rotate(-45 169.88 5.86)" class="" style="white-space:pre">Jul 2</text><text y="422" fill="#178600" font-family="'Open Sans',verdana,arial,sans-serif" font-size="12" text-anchor="end" transform="rotate(-45 181.91 -23.18)" class="" style="white-space:pre">Jul 3</text><text y="422" fill="#178600" font-family="'Open Sans',verdana,arial,sans-serif" font-size="12" text-anchor="end" transform="rotate(-45 193.95 -52.24)" class="" style="white-space:pre">Jul 4</text><text y="422" fill="#178600" font-family="'Open Sans',verdana,arial,sans-serif" font-size="12" text-anchor="end" transform="rotate(-45 205.98 -81.3)" class="" style="white-space:pre">Jul 5</text><text y="422" fill="#178600" font-family="'Open Sans',verdana,arial,sans-serif" font-size="12" text-anchor="end" transform="rotate(-45 218.01 -110.33)" class="" style="white-space:pre">Jul 6</text><text y="422" fill="#178600" font-family="'Open Sans',verdana,arial,sans-serif" font-size="12" text-anchor="end" transform="rotate(-45 230.05 -139.39)" class="" style="white-space:pre">Jul 7</text><text y="422" fill="#178600" font-family="'Open Sans',verdana,arial,sans-serif" font-size="12" text-anchor="end" transform="rotate(-45 242.08 -168.44)" class="" style="white-space:pre">Jul 8</text><text y="422" fill="#178600" font-family="'Open Sans',verdana,arial,sans-serif" font-size="12" text-anchor="end" transform="rotate(-45 254.12 -197.49)" class="" style="white-space:pre">Jul 9</text><text y="422" fill="#178600" font-family="'Open Sans',verdana,arial,sans-serif" font-size="12" text-anchor="end" transform="rotate(-45 266.15 -226.54)" class="" style="white-space:pre">Jul 10</text><text y="422" fill="#178600" font-family="'Open Sans',verdana,arial,sans-serif" font-size="12" text-anchor="end" transform="rotate(-45 278.19 -255.6)" class="" style="white-space:pre">Jul 11</text><text y="422" fill="#178600" font-family="'Open Sans',verdana,arial,sans-serif" font-size="12" text-anchor="end" transform="rotate(-45 290.21 -284.64)" class="" style="white-space:pre">Jul 12</text><text y="422" fill="#178600" font-family="'Open Sans',verdana,arial,sans-serif" font-size="12" text-anchor="end" transform="rotate(-45 302.25 -313.7)" class="" style="white-space:pre">Jul 13</text><text y="422" fill="#178600" font-family="'Open Sans',verdana,arial,sans-serif" font-size="12" text-anchor="end" transform="rotate(-45 314.29 -342.75)" class="" style="white-space:pre">Jul 14</text><text y="422" fill="#178600" font-family="'Open Sans',verdana,arial,sans-serif" font-size="12" text-anchor="end" transform="rotate(-45 326.31 -371.8)" class="" style="white-space:pre">Jul 15</text><text y="422" fill="#178600" font-family="'Open Sans',verdana,arial,sans-serif" font-size="12" text-anchor="end" transform="rotate(-45 338.35 -400.85)" class="" style="white-space:pre">Jul 16</text><text y="422" fill="#178600" font-family="'Open Sans',verdana,arial,sans-serif" font-size="12" text-anchor="end" transform="rotate(-45 350.38 -429.9)" class="" style="white-space:pre">Jul 17</text><text y="422" fill="#178600" font-family="'Open Sans',verdana,arial,sans-serif" font-size="12" text-anchor="end" transform="rotate(-45 362.42 -458.95)" class="" style="white-space:pre">Jul 18</text><text y="422" fill="#178600" font-family="'Open Sans',verdana,arial,sans-serif" font-size="12" text-anchor="end" transform="rotate(-45 374.45 -488)" class="" style="white-space:pre">Jul 19</text><text y="422" fill="#178600" font-family="'Open Sans',verdana,arial,sans-serif" font-size="12" text-anchor="end" transform="rotate(-45 386.49 -517.06)" class="" style="white-space:pre">Jul 20</text></g><g class="yaxislayer-above"><path stroke="#0f4d00" stroke-width="1" d="M61 409h-4M61 351.57h-4M61 294.14h-4M61 236.71h-4M61 179.29h-4M61 121.86h-4M61 64.43h-4M61 7h-4" class="ytick ticks crisp"/><text x="54.6" y="4.2" fill="#178600" font-family="'Open Sans',verdana,arial,sans-serif" font-size="12" text-anchor="end" transform="translate(0 409)" class="" style="white-space:pre">0</text><text x="54.6" y="4.2" fill="#178600" font-family="'Open Sans',verdana,arial,sans-serif" font-size="12" text-anchor="end" transform="translate(0 351.57)" class="" style="white-space:pre">500</text><text x="54.6" y="4.2" fill="#178600" font-family="'Open Sans',verdana,arial,sans-serif" font-size="12" text-anchor="end" transform="translate(0 294.14)" class="" style="white-space:pre">1,000</text><text x="54.6" y="4.2" fill="#178600" font-family="'Open Sans',verdana,arial,sans-serif" font-size="12" text-anchor="end" transform="translate(0 236.71)" class="" style="white-space:pre">1,500</text><text x="54.6" y="4.2" fill="#178600" font-family="'Open Sans',verdana,arial,sans-serif" font-size="12" text-anchor="end" transform="translate(0 179.29)" class="" style="white-space:pre">2,000</text><text x="54.6" y="4.2" fill="#178600" font-family="'Open Sans',verdana,arial,sans-serif" font-size="12" text-anchor="end" transform="translate(0 121.86)" class="" style="white-space:pre">2,500</text><text x="54.6" y="4.2" fill="#178600" font-family="'Open Sans',verdana,arial,sans-serif" font-size="12" text-anchor="end" transform="translate(0 64.43)" class="" style="white-space:pre">3,000</text><text x="54.6" y="4.2" fill="#178600" font-family="'Open Sans',verdana,arial,sans-serif" font-size="12" text-anchor="end" transform="translate(0 7)" class="" style="white-space:pre">3,500</text></g></g></g><defs><clipPath id="c"><path d="M0 0H114V314H0z"/></clipPath></defs><g class="layer-above"><path fill="none" stroke="#0f4d00" stroke-width="2" d="M63 7h722" clip-path="url('#b')" data-index="0" class=""/></g><g class="infolayer"><g class="legend" pointer-events="all" transform="translate(786 7)"><path fill="#0d1117" d="M0 0H114V314H0z" class="bg" shape-rendering="crispEdges"/><g class="scrollbox" clip-path="url('#c')"><g class="groups"><g class="traces" transform="translate(0 14.5)"><text x="40" y="4.68" class="legendtext user-select-none" style="white-space:pre" fill="#178600" font-family="'Open Sans',verdana,arial,sans-serif" font-size="12">zsh</text><g class="layers"><g class="legendsymbols"><g class="legendpoints"><path fill="#3e4053" d="M26 6H14V-6h12z" class="legendundefined"/></g></g></g><path fill="none" d="M0 -9.5H108.19V9.5H0z" class="legendtoggle" cursor="pointer"/></g><g class="traces" transform="translate(0 33.5)"><text x="40" y="4.68" class="legendtext user-select-none" style="white-space:pre" fill="#178600" font-family="'Open Sans',verdana,arial,sans-serif" font-size="12">Go</text><g class="layers"><g class="legendsymbols"><g class="legendpoints"><path fill="#f15854" d="M26 6H14V-6h12z" class="legendundefined"/></g></g></g><path fill="none" d="M0 -9.5H108.19V9.5H0z" class="legendtoggle" cursor="pointer"/></g><g class="traces" transform="translate(0 52.5)"><text x="40" y="4.68" class="legendtext user-select-none" style="white-space:pre" fill="#178600" font-family="'Open Sans',verdana,arial,sans-serif" font-size="12">Markdown</text><g class="layers"><g class="legendsymbols"><g class="legendpoints"><path fill="#5da5da" d="M26 6H14V-6h12z" class="legendundefined"/></g></g></g><path fill="none" d="M0 -9.5H108.19V9.5H0z" class="legendtoggle" cursor="pointer"/></g><g class="traces" transform="translate(0 71.5)"><text x="40" y="4.68" class="legendtext user-select-none" style="white-space:pre" fill="#178600" font-family="'Open Sans',verdana,arial,sans-serif" font-size="12">nix</text><g class="layers"><g class="legendsymbols"><g class="legendpoints"><path fill="#faa43a" d="M26 6H14V-6h12z" class="legendundefined"/></g></g></g><path fill="none" d="M0 -9.5H108.19V9.5H0z" class="legendtoggle" cursor="pointer"/></g><g class="traces" transform="translate(0 90.5)"><text x="40" y="4.68" class="legendtext user-select-none" style="white-space:pre" fill="#178600" font-family="'Open Sans',verdana,arial,sans-serif" font-size="12">JSON</text><g class="layers"><g class="legendsymbols"><g class="legendpoints"><path fill="#60bd68" d="M26 6H14V-6h12z" class="legendundefined"/></g></g></g><path fill="none" d="M0 -9.5H108.19V9.5H0z" class="legendtoggle" cursor="pointer"/></g><g class="traces" transform="translate(0 109.5)"><text x="40" y="4.68" class="legendtext user-select-none" style="white-space:pre" fill="#178600" font-family="'Open Sans',verdana,arial,sans-serif" font-size="12">Python</text><g class="layers"><g class="legendsymbols"><g class="legendpoints"><path fill="#f17cb0" d="M26 6H14V-6h12z" class="legendundefined"/></g></g></g><path fill="none" d="M0 -9.5H108.19V9.5H0z" class="legendtoggle" cursor="pointer"/></g><g class="traces" transform="translate(0 128.5)"><text x="40" y="4.68" class="legendtext user-select-none" style="white-space:pre" fill="#178600" font-family="'Open Sans',verdana,arial,sans-serif" font-size="12">Kotlin</text><g class="layers"><g class="legendsymbols"><g class="legendpoints"><path fill="#b2912f" d="M26 6H14V-6h12z" class="legendundefined"/></g></g></g><path fill="none" d="M0 -9.5H108.19V9.5H0z" class="legendtoggle" cursor="pointer"/></g><g class="traces" transform="translate(0 147.5)"><text x="40" y="4.68" class="legendtext user-select-none" style="white-space:pre" fill="#178600" font-family="'Open Sans',verdana,arial,sans-serif" font-size="12">Java</text><g class="layers"><g class="legendsymbols"><g class="legendpoints"><path fill="#decf3f" d="M26 6H14V-6h12z" class="legendundefined"/></g></g></g><path fill="none" d="M0 -9.5H108.19V9.5H0z" class="legendtoggle" cursor="pointer"/></g><g class="traces" transform="translate(0 166.5)"><text x="40" y="4.68" class="legendtext user-select-none" style="white-space:pre" fill="#178600" font-family="'Open Sans',verdana,arial,sans-serif" font-size="12">text</text><g class="layers"><g class="legendsymbols"><g class="legendpoints"><path fill="#b276b2" d="M26 6H14V-6h12z" class="legendundefined"/></g></g></g><path fill="none" d="M0 -9.5H108.19V9.5H0z" class="legendtoggle" cursor="pointer"/></g><g class="traces" transform="translate(0 185.5)"><text x="40" y="4.68" class="legendtext user-select-none" style="white-space:pre" fill="#178600" font-family="'Open Sans',verdana,arial,sans-serif" font-size="12">Lua</text><g class="layers"><g class="legendsymbols"><g class="legendpoints"><path fill="#3e4053" d="M26 6H14V-6h12z" class="legendundefined"/></g></g></g><path fill="none" d="M0 -9.5H108.19V9.5H0z" class="legendtoggle" cursor="pointer"/></g><g class="traces" transform="translate(0 204.5)"><text x="40" y="4.68" class="legendtext user-select-none" style="white-space:pre" fill="#178600" font-family="'Open Sans',verdana,arial,sans-serif" font-size="12">Shell Script</text><g class="layers"><g class="legendsymbols"><g class="legendpoints"><path fill="#f15854" d="M26 6H14V-6h12z" class="legendundefined"/></g></g></g><path fill="none" d="M0 -9.5H108.19V9.5H0z" class="legendtoggle" cursor="pointer"/></g><g class="traces" transform="translate(0 223.5)"><text x="40" y="4.68" class="legendtext user-select-none" style="white-space:pre" fill="#178600" font-family="'Open Sans',verdana,arial,sans-serif" font-size="12">desktop</text><g class="layers"><g class="legendsymbols"><g class="legendpoints"><path fill="#5da5da" d="M26 6H14V-6h12z" class="legendundefined"/></g></g></g><path fill="none" d="M0 -9.5H108.19V9.5H0z" class="legendtoggle" cursor="pointer"/></g><g class="traces" transform="translate(0 242.5)"><text x="40" y="4.68" class="legendtext user-select-none" style="white-space:pre" fill="#178600" font-family="'Open Sans',verdana,arial,sans-serif" font-size="12">Properties</text><g class="layers"><g class="legendsymbols"><g class="legendpoints"><path fill="#faa43a" d="M26 6H14V-6h12z" class="legendundefined"/></g></g></g><path fill="none" d="M0 -9.5H108.19V9.5H0z" class="legendtoggle" cursor="pointer"/></g><g class="traces" transform="translate(0 261.5)"><text x="40" y="4.68" class="legendtext user-select-none" style="white-space:pre" fill="#178600" font-family="'Open Sans',verdana,arial,sans-serif" font-size="12">hyprlang</text><g class="layers"><g class="legendsymbols"><g class="legendpoints"><path fill="#60bd68" d="M26 6H14V-6h12z" class="legendundefined"/></g></g></g><path fill="none" d="M0 -9.5H108.19V9.5H0z" class="legendtoggle" cursor="pointer"/></g><g class="traces" transform="translate(0 280.5)"><text x="40" y="4.68" class="legendtext user-select-none" style="white-space:pre" fill="#178600" font-family="'Open Sans',verdana,arial,sans-serif" font-size="12">lazy</text><g class="layers"><g class="legendsymbols"><g class="legendpoints"><path fill="#f17cb0" d="M26 6H14V-6h12z" class="legendundefined"/></g></g></g><path fill="none" d="M0 -9.5H108.19V9.5H0z" class="legendtoggle" cursor="pointer"/></g><g class="traces" transform="translate(0 299.5)"><text x="40" y="4.68" class="legendtext user-select-none" style="white-space:pre" fill="#178600" font-family="'Open Sans',verdana,arial,sans-serif" font-size="12">Others</text><g class="layers"><g class="legendsymbols"><g class="legendpoints"><path fill="#b2912f" d="M26 6H14V-6h12z" class="legendundefined"/></g></g></g><path fill="none" d="M0 -9.5H108.19V9.5H0z" class="legendtoggle" cursor="pointer"/></g></g></g></g><g class="g-ytitle"><text x=".43" y="208" fill="#178600" class="ytitle" font-family="'Open Sans',verdana,arial,sans-serif" font-size="14" font-weight="400" text-anchor="middle" transform="translate(12.57) rotate(-90 .43 208)" style="white-space:pre">XP</text></g></g></svg>
