<svg xmlns="http://www.w3.org/2000/svg" width="900" height="450" class="main-svg"><path fill="#0d1117" d="M0 0H900V450H0z"/><defs><clipPath id="a" class="plotclip"><path d="M0 0H731V402H0z"/></clipPath><clipPath class="axesclip"><path d="M62 0H793V450H62z"/></clipPath><clipPath class="axesclip"><path d="M0 7H900V409H0z"/></clipPath><clipPath id="b" class="axesclip"><path d="M62 7H793V409H62z"/></clipPath></defs><g class="cartesianlayer"><g class="subplot xy"><g class="gridlayer"><g class="x"><path stroke="#0f4d00" stroke-width="1" d="M87.3 7v402M111.6 7v402M135.9 7v402M160.2 7v402M184.5 7v402M208.8 7v402M233.1 7v402M257.4 7v402M281.7 7v402M306 7v402M330.3 7v402M354.6 7v402M378.9 7v402M403.2 7v402M427.5 7v402M451.8 7v402M476.1 7v402M500.4 7v402M524.7 7v402M549 7v402M573.3 7v402M597.6 7v402M621.9 7v402M646.2 7v402M670.5 7v402M694.8 7v402M719.1 7v402M743.4 7v402M767.7 7v402" class="xgrid crisp"/></g><g class="y"><path stroke="#0f4d00" stroke-width="1" d="M62 358.75h731M62 308.5h731M62 258.25h731M62 208h731M62 157.75h731M62 107.5h731M62 57.25h731" class="ygrid crisp"/></g></g><g class="zerolinelayer"><path stroke="#178600" stroke-width="1" d="M62 409h731" class="yzl zl crisp"/></g><g class="plot" clip-path="url('#a')" transform="translate(62 7)"><g class="barlayer mlayer"><g class="trace bars" shape-rendering="crispEdges"><g class="points"><path fill="#3e4053" d="M4.65 402h17.01zM28.95 402h17.01zM53.25 402h17.01zM77.55 402h17.01zM101.85 402h17.01zM126.15 402h17.01zM150.45 402h17.01zM174.75 402v-8.64h17.01V402zM199.05 402h17.01zM223.35 402v-4.32h17.01V402zM247.65 402v-.1h17v.1zM271.95 402h17.01zM296.25 402h17.01zM320.55 402h17zM344.85 402h17zM369.15 402h17.01zM393.45 402h17.01zM417.74 402h17.01zM442.04 402h17.01zM466.35 402h17zM490.65 402v-.1h17v.1zM514.94 402v-71.15h17.01V402zM539.25 402v-15.98h17.01V402zM563.54 402v-1.81h17.01V402zM587.84 402v-.5h17.01v.5zM612.15 402V201.1h17.01V402zM636.44 402v-94.57h17.01V402zM660.75 402V207.43h17.01V402zM685.05 402V117.79h17.01V402zM709.34 402V61.91h17.01V402z" vector-effect="non-scaling-stroke" class=""/></g></g><g class="trace bars" shape-rendering="crispEdges"><g class="points"><path fill="#f15854" d="M4.65 402h17.01zM28.95 402h17.01zM53.25 402h17.01zM77.55 402h17.01zM101.85 402v-5.23h17.01V402zM126.15 402v-9.55h17.01V402zM150.45 402h17.01zM174.75 393.36v-4.12h17.01v4.12zM199.05 402h17.01zM223.35 397.68V382h17.01v15.68zM247.65 401.9v-69.85h17v69.85zM271.95 402v-3.01h17.01V402zM296.25 402h17.01zM320.55 402v-41h17v41zM344.85 402v-53.77h17V402zM369.15 402v-.5h17.01v.5zM393.45 402V292.35h17.01V402zM417.74 402v-97.69h17.01V402zM442.04 402V249.24h17.01V402zM466.35 402v-91.46h17V402zM490.65 401.9V293.76h17V401.9zM514.94 330.85v-20.81h17.01v20.81zM539.25 386.02V263.51h17.01v122.51zM563.54 400.19V382.6h17.01v17.59zM587.84 401.5v-22.41h17.01v22.41zM612.15 201.1v-43.01h17.01v43.01zM636.44 307.43v-.8h17.01v.8zM660.75 207.43v-17.69h17.01v17.69zM685.05 117.79V92.16h17.01v25.63zM709.34 61.91V32.16h17.01v29.75z" vector-effect="non-scaling-stroke" class=""/></g></g><g class="trace bars" shape-rendering="crispEdges"><g class="points"><path fill="#5da5da" d="M4.65 402V250.85h17.01V402zM28.95 402h17.01zM53.25 402V247.33h17.01V402zM77.55 402V76.98h17.01V402zM101.85 396.77h17.01zM126.15 392.45h17.01zM150.45 402h17.01zM174.75 389.24h17.01zM199.05 402h17.01zM223.35 382h17.01zM247.65 332.05h17zM271.95 398.99h17.01zM296.25 402h17.01zM320.55 361h17zM344.85 348.23h17zM369.15 401.5h17.01zM393.45 292.35h17.01zM417.74 304.31h17.01zM442.04 249.24h17.01zM466.35 310.54h17zM490.65 293.76h17zM514.94 310.04V179.29h17.01v130.75zM539.25 263.51h17.01zM563.54 382.6h17.01zM587.84 379.09h17.01zM612.15 158.09h17.01zM636.44 306.63h17.01zM660.75 189.74h17.01zM685.05 92.16h17.01zM709.34 32.16h17.01z" vector-effect="non-scaling-stroke" class=""/></g></g><g class="trace bars" shape-rendering="crispEdges"><g class="points"><path fill="#faa43a" d="M4.65 250.85h17.01zM28.95 402h17.01zM53.25 247.33h17.01zM77.55 76.98h17.01zM101.85 396.77h17.01zM126.15 392.45h17.01zM150.45 402h17.01zM174.75 389.24h17.01zM199.05 402h17.01zM223.35 382h17.01zM247.65 332.05h17zM271.95 398.99h17.01zM296.25 402h17.01zM320.55 361h17zM344.85 348.23h17zM369.15 401.5V381h17.01v20.5zM393.45 292.35v-28.54h17.01v28.54zM417.74 304.31v-11.35h17.01v11.35zM442.04 249.24v-.5h17.01v.5zM466.35 310.54h17zM490.65 293.76h17zM514.94 179.29h17.01zM539.25 263.51h17.01zM563.54 382.6h17.01zM587.84 379.09h17.01zM612.15 158.09h17.01zM636.44 306.63h17.01zM660.75 189.74h17.01zM685.05 92.16h17.01zM709.34 32.16h17.01z" vector-effect="non-scaling-stroke" class=""/></g></g><g class="trace bars" shape-rendering="crispEdges"><g class="points"><path fill="#60bd68" d="M4.65 250.85h17.01zM28.95 402h17.01zM53.25 247.33h17.01zM77.55 76.98h17.01zM101.85 396.77h17.01zM126.15 392.45h17.01zM150.45 402h17.01zM174.75 389.24h17.01zM199.05 402h17.01zM223.35 382h17.01zM247.65 332.05h17zM271.95 398.99h17.01zM296.25 402h17.01zM320.55 361h17zM344.85 348.23v-3.21h17v3.21zM369.15 381h17.01zM393.45 263.81v-21.6h17.01v21.6zM417.74 292.96v-9.45h17.01v9.45zM442.04 248.74v-2.41h17.01v2.41zM466.35 310.54v-.5h17v.5zM490.65 293.76h17zM514.94 179.29v-.4h17.01v.4zM539.25 263.51h17.01zM563.54 382.6h17.01zM587.84 379.09h17.01zM612.15 158.09h17.01zM636.44 306.63h17.01zM660.75 189.74h17.01zM685.05 92.16h17.01zM709.34 32.16h17.01z" vector-effect="non-scaling-stroke" class=""/></g></g><g class="trace bars" shape-rendering="crispEdges"><g class="points"><path fill="#f17cb0" d="M4.65 250.85h17.01zM28.95 402h17.01zM53.25 247.33h17.01zM77.55 76.98h17.01zM101.85 396.77h17.01zM126.15 392.45v-15.98h17.01v15.98zM150.45 402h17.01zM174.75 389.24h17.01zM199.05 402h17.01zM223.35 382h17.01zM247.65 332.05h17zM271.95 398.99h17.01zM296.25 402h17.01zM320.55 361h17zM344.85 345.02h17zM369.15 381h17.01zM393.45 242.21h17.01zM417.74 283.51h17.01zM442.04 246.33v-12.87h17.01v12.87zM466.35 310.04h17zM490.65 293.76h17zM514.94 178.89h17.01zM539.25 263.51h17.01zM563.54 382.6h17.01zM587.84 379.09h17.01zM612.15 158.09h17.01zM636.44 306.63h17.01zM660.75 189.74h17.01zM685.05 92.16h17.01zM709.34 32.16h17.01z" vector-effect="non-scaling-stroke" class=""/></g></g><g class="trace bars" shape-rendering="crispEdges"><g class="points"><path fill="#b2912f" d="M4.65 250.85h17.01zM28.95 402h17.01zM53.25 247.33h17.01zM77.55 76.98h17.01zM101.85 396.77h17.01zM126.15 376.47h17.01zM150.45 402h17.01zM174.75 389.24h17.01zM199.05 402h17.01zM223.35 382h17.01zM247.65 332.05v-3.41h17v3.41zM271.95 398.99h17.01zM296.25 402h17.01zM320.55 361h17zM344.85 345.02v-12.57h17v12.57zM369.15 381h17.01zM393.45 242.21h17.01zM417.74 283.51h17.01zM442.04 233.46v-11.05h17.01v11.05zM466.35 310.04h17zM490.65 293.76h17zM514.94 178.89h17.01zM539.25 263.51h17.01zM563.54 382.6h17.01zM587.84 379.09h17.01zM612.15 158.09h17.01zM636.44 306.63h17.01zM660.75 189.74h17.01zM685.05 92.16h17.01zM709.34 32.16h17.01z" vector-effect="non-scaling-stroke" class=""/></g></g><g class="trace bars" shape-rendering="crispEdges"><g class="points"><path fill="#decf3f" d="M4.65 250.85h17.01zM28.95 402h17.01zM53.25 247.33h17.01zM77.55 76.98h17.01zM101.85 396.77h17.01zM126.15 376.47h17.01zM150.45 402h17.01zM174.75 389.24h17.01zM199.05 402h17.01zM223.35 382h17.01zM247.65 328.64h17zM271.95 398.99h17.01zM296.25 402h17.01zM320.55 361h17zM344.85 332.45v-2.11h17v2.11zM369.15 381h17.01zM393.45 242.21h17.01zM417.74 283.51h17.01zM442.04 222.41h17.01zM466.35 310.04v-.4h17v.4zM490.65 293.76h17zM514.94 178.89h17.01zM539.25 263.51h17.01zM563.54 382.6h17.01zM587.84 379.09h17.01zM612.15 158.09h17.01zM636.44 306.63h17.01zM660.75 189.74h17.01zM685.05 92.16h17.01zM709.34 32.16h17.01z" vector-effect="non-scaling-stroke" class=""/></g></g><g class="trace bars" shape-rendering="crispEdges"><g class="points"><path fill="#b276b2" d="M4.65 250.85h17.01zM28.95 402h17.01zM53.25 247.33h17.01zM77.55 76.98h17.01zM101.85 396.77h17.01zM126.15 376.47h17.01zM150.45 402h17.01zM174.75 389.24v-2.01h17.01v2.01zM199.05 402h17.01zM223.35 382h17.01zM247.65 328.64h17zM271.95 398.99h17.01zM296.25 402h17.01zM320.55 361h17zM344.85 330.34h17zM369.15 381h17.01zM393.45 242.21h17.01zM417.74 283.51h17.01zM442.04 222.41h17.01zM466.35 309.64h17zM490.65 293.76h17zM514.94 178.89h17.01zM539.25 263.51h17.01zM563.54 382.6h17.01zM587.84 379.09h17.01zM612.15 158.09h17.01zM636.44 306.63h17.01zM660.75 189.74h17.01zM685.05 92.16h17.01zM709.34 32.16h17.01z" vector-effect="non-scaling-stroke" class=""/></g></g><g class="trace bars" shape-rendering="crispEdges"><g class="points"><path fill="#3e4053" d="M4.65 250.85h17.01zM28.95 402h17.01zM53.25 247.33h17.01zM77.55 76.98h17.01zM101.85 396.77h17.01zM126.15 376.47h17.01zM150.45 402h17.01zM174.75 387.23h17.01zM199.05 402h17.01zM223.35 382h17.01zM247.65 328.64h17zM271.95 398.99h17.01zM296.25 402h17.01zM320.55 361h17zM344.85 330.34h17zM369.15 381h17.01zM393.45 242.21v-.81h17.01v.81zM417.74 283.51h17.01zM442.04 222.41h17.01zM466.35 309.64h17zM490.65 293.76h17zM514.94 178.89h17.01zM539.25 263.51h17.01zM563.54 382.6h17.01zM587.84 379.09h17.01zM612.15 158.09h17.01zM636.44 306.63h17.01zM660.75 189.74h17.01zM685.05 92.16h17.01zM709.34 32.16h17.01z" vector-effect="non-scaling-stroke" class=""/></g></g><g class="trace bars" shape-rendering="crispEdges"><g class="points"><path fill="#f15854" d="M4.65 250.85h17.01zM28.95 402h17.01zM53.25 247.33h17.01zM77.55 76.98h17.01zM101.85 396.77h17.01zM126.15 376.47h17.01zM150.45 402h17.01zM174.75 387.23h17.01zM199.05 402h17.01zM223.35 382h17.01zM247.65 328.64h17zM271.95 398.99h17.01zM296.25 402h17.01zM320.55 361h17zM344.85 330.34h17zM369.15 381h17.01zM393.45 241.4v-.4h17.01v.4zM417.74 283.51h17.01zM442.04 222.41h17.01zM466.35 309.64h17zM490.65 293.76h17zM514.94 178.89h17.01zM539.25 263.51h17.01zM563.54 382.6h17.01zM587.84 379.09h17.01zM612.15 158.09h17.01zM636.44 306.63h17.01zM660.75 189.74h17.01zM685.05 92.16h17.01zM709.34 32.16h17.01z" vector-effect="non-scaling-stroke" class=""/></g></g><g class="trace bars" shape-rendering="crispEdges"><g class="points"><path fill="#5da5da" d="M4.65 250.85h17.01zM28.95 402h17.01zM53.25 247.33h17.01zM77.55 76.98h17.01zM101.85 396.77h17.01zM126.15 376.47h17.01zM150.45 402h17.01zM174.75 387.23h17.01zM199.05 402h17.01zM223.35 382h17.01zM247.65 328.64h17zM271.95 398.99h17.01zM296.25 402h17.01zM320.55 361h17zM344.85 330.34h17zM369.15 381h17.01zM393.45 241v-.2h17.01v.2zM417.74 283.51h17.01zM442.04 222.41h17.01zM466.35 309.64h17zM490.65 293.76h17zM514.94 178.89h17.01zM539.25 263.51h17.01zM563.54 382.6h17.01zM587.84 379.09h17.01zM612.15 158.09h17.01zM636.44 306.63h17.01zM660.75 189.74h17.01zM685.05 92.16h17.01zM709.34 32.16h17.01z" vector-effect="non-scaling-stroke" class=""/></g></g><g class="trace bars" shape-rendering="crispEdges"><g class="points"><path fill="#faa43a" d="M4.65 250.85h17.01zM28.95 402h17.01zM53.25 247.33h17.01zM77.55 76.98h17.01zM101.85 396.77h17.01zM126.15 376.47h17.01zM150.45 402h17.01zM174.75 387.23h17.01zM199.05 402h17.01zM223.35 382h17.01zM247.65 328.64h17zM271.95 398.99h17.01zM296.25 402h17.01zM320.55 361h17zM344.85 330.34h17zM369.15 381h17.01zM393.45 240.8v-.2h17.01v.2zM417.74 283.51h17.01zM442.04 222.41h17.01zM466.35 309.64h17zM490.65 293.76h17zM514.94 178.89h17.01zM539.25 263.51h17.01zM563.54 382.6h17.01zM587.84 379.09h17.01zM612.15 158.09h17.01zM636.44 306.63h17.01zM660.75 189.74h17.01zM685.05 92.16h17.01zM709.34 32.16h17.01z" vector-effect="non-scaling-stroke" class=""/></g></g></g></g><path fill="none" stroke="#0f4d00" stroke-width="1" d="M61.5 7v402" class="ylines-above crisp"/><g class="xaxislayer-above"><path stroke="#0f4d00" stroke-width="1" d="M63 410v4M87.3 410v4M111.6 410v4M135.9 410v4M160.2 410v4M184.5 410v4M208.8 410v4M233.1 410v4M257.4 410v4M281.7 410v4M306 410v4M330.3 410v4M354.6 410v4M378.9 410v4M403.2 410v4M427.5 410v4M451.8 410v4M476.1 410v4M500.4 410v4M524.7 410v4M549 410v4M573.3 410v4M597.6 410v4M621.9 410v4M646.2 410v4M670.5 410v4M694.8 410v4M719.1 410v4M743.4 410v4M767.7 410v4M792 410v4" class="xtick ticks crisp"/><text y="422" fill="#178600" font-family="'Open Sans',verdana,arial,sans-serif" font-size="12" text-anchor="end" transform="rotate(-45 37.57 325.29)" class="" style="white-space:pre">Jun 25</text><text y="422" fill="#178600" font-family="'Open Sans',verdana,arial,sans-serif" font-size="12" text-anchor="end" transform="rotate(-45 49.72 295.95)" class="" style="white-space:pre">Jun 26</text><text y="422" fill="#178600" font-family="'Open Sans',verdana,arial,sans-serif" font-size="12" text-anchor="end" transform="rotate(-45 61.87 266.62)" class="" style="white-space:pre">Jun 27</text><text y="422" fill="#178600" font-family="'Open Sans',verdana,arial,sans-serif" font-size="12" text-anchor="end" transform="rotate(-45 74.02 237.29)" class="" style="white-space:pre">Jun 28</text><text y="422" fill="#178600" font-family="'Open Sans',verdana,arial,sans-serif" font-size="12" text-anchor="end" transform="rotate(-45 86.17 207.96)" class="" style="white-space:pre">Jun 29</text><text y="422" fill="#178600" font-family="'Open Sans',verdana,arial,sans-serif" font-size="12" text-anchor="end" transform="rotate(-45 98.32 178.62)" class="" style="white-space:pre">Jun 30</text><text y="422" fill="#178600" font-family="'Open Sans',verdana,arial,sans-serif" font-size="12" text-anchor="end" transform="rotate(-45 110.47 149.29)" class="" style="white-space:pre">Jul 1</text><text y="422" fill="#178600" font-family="'Open Sans',verdana,arial,sans-serif" font-size="12" text-anchor="end" transform="rotate(-45 122.62 119.96)" class="" style="white-space:pre">Jul 2</text><text y="422" fill="#178600" font-family="'Open Sans',verdana,arial,sans-serif" font-size="12" text-anchor="end" transform="rotate(-45 134.78 90.62)" class="" style="white-space:pre">Jul 3</text><text y="422" fill="#178600" font-family="'Open Sans',verdana,arial,sans-serif" font-size="12" text-anchor="end" transform="rotate(-45 146.93 61.3)" class="" style="white-space:pre">Jul 4</text><text y="422" fill="#178600" font-family="'Open Sans',verdana,arial,sans-serif" font-size="12" text-anchor="end" transform="rotate(-45 159.07 31.96)" class="" style="white-space:pre">Jul 5</text><text y="422" fill="#178600" font-family="'Open Sans',verdana,arial,sans-serif" font-size="12" text-anchor="end" transform="rotate(-45 171.22 2.63)" class="" style="white-space:pre">Jul 6</text><text y="422" fill="#178600" font-family="'Open Sans',verdana,arial,sans-serif" font-size="12" text-anchor="end" transform="rotate(-45 183.38 -26.7)" class="" style="white-space:pre">Jul 7</text><text y="422" fill="#178600" font-family="'Open Sans',verdana,arial,sans-serif" font-size="12" text-anchor="end" transform="rotate(-45 195.52 -56.04)" class="" style="white-space:pre">Jul 8</text><text y="422" fill="#178600" font-family="'Open Sans',verdana,arial,sans-serif" font-size="12" text-anchor="end" transform="rotate(-45 207.68 -85.37)" class="" style="white-space:pre">Jul 9</text><text y="422" fill="#178600" font-family="'Open Sans',verdana,arial,sans-serif" font-size="12" text-anchor="end" transform="rotate(-45 219.82 -114.7)" class="" style="white-space:pre">Jul 10</text><text y="422" fill="#178600" font-family="'Open Sans',verdana,arial,sans-serif" font-size="12" text-anchor="end" transform="rotate(-45 231.97 -144.04)" class="" style="white-space:pre">Jul 11</text><text y="422" fill="#178600" font-family="'Open Sans',verdana,arial,sans-serif" font-size="12" text-anchor="end" transform="rotate(-45 244.13 -173.37)" class="" style="white-space:pre">Jul 12</text><text y="422" fill="#178600" font-family="'Open Sans',verdana,arial,sans-serif" font-size="12" text-anchor="end" transform="rotate(-45 256.27 -202.7)" class="" style="white-space:pre">Jul 13</text><text y="422" fill="#178600" font-family="'Open Sans',verdana,arial,sans-serif" font-size="12" text-anchor="end" transform="rotate(-45 268.42 -232.04)" class="" style="white-space:pre">Jul 14</text><text y="422" fill="#178600" font-family="'Open Sans',verdana,arial,sans-serif" font-size="12" text-anchor="end" transform="rotate(-45 280.57 -261.37)" class="" style="white-space:pre">Jul 15</text><text y="422" fill="#178600" font-family="'Open Sans',verdana,arial,sans-serif" font-size="12" text-anchor="end" transform="rotate(-45 292.73 -290.7)" class="" style="white-space:pre">Jul 16</text><text y="422" fill="#178600" font-family="'Open Sans',verdana,arial,sans-serif" font-size="12" text-anchor="end" transform="rotate(-45 304.88 -320.03)" class="" style="white-space:pre">Jul 17</text><text y="422" fill="#178600" font-family="'Open Sans',verdana,arial,sans-serif" font-size="12" text-anchor="end" transform="rotate(-45 317.02 -349.37)" class="" style="white-space:pre">Jul 18</text><text y="422" fill="#178600" font-family="'Open Sans',verdana,arial,sans-serif" font-size="12" text-anchor="end" transform="rotate(-45 329.18 -378.7)" class="" style="white-space:pre">Jul 19</text><text y="422" fill="#178600" font-family="'Open Sans',verdana,arial,sans-serif" font-size="12" text-anchor="end" transform="rotate(-45 341.32 -408.03)" class="" style="white-space:pre">Jul 20</text><text y="422" fill="#178600" font-family="'Open Sans',verdana,arial,sans-serif" font-size="12" text-anchor="end" transform="rotate(-45 353.48 -437.36)" class="" style="white-space:pre">Jul 21</text><text y="422" fill="#178600" font-family="'Open Sans',verdana,arial,sans-serif" font-size="12" text-anchor="end" transform="rotate(-45 365.62 -466.7)" class="" style="white-space:pre">Jul 22</text><text y="422" fill="#178600" font-family="'Open Sans',verdana,arial,sans-serif" font-size="12" text-anchor="end" transform="rotate(-45 377.77 -496.03)" class="" style="white-space:pre">Jul 23</text><text y="422" fill="#178600" font-family="'Open Sans',verdana,arial,sans-serif" font-size="12" text-anchor="end" transform="rotate(-45 389.93 -525.36)" class="" style="white-space:pre">Jul 24</text></g><g class="yaxislayer-above"><path stroke="#0f4d00" stroke-width="1" d="M61 409h-4M61 358.75h-4M61 308.5h-4M61 258.25h-4M61 208h-4M61 157.75h-4M61 107.5h-4M61 57.25h-4M61 7h-4" class="ytick ticks crisp"/><text x="54.6" y="4.2" fill="#178600" font-family="'Open Sans',verdana,arial,sans-serif" font-size="12" text-anchor="end" transform="translate(0 409)" class="" style="white-space:pre">0</text><text x="54.6" y="4.2" fill="#178600" font-family="'Open Sans',verdana,arial,sans-serif" font-size="12" text-anchor="end" transform="translate(0 358.75)" class="" style="white-space:pre">500</text><text x="54.6" y="4.2" fill="#178600" font-family="'Open Sans',verdana,arial,sans-serif" font-size="12" text-anchor="end" transform="translate(0 308.5)" class="" style="white-space:pre">1,000</text><text x="54.6" y="4.2" fill="#178600" font-family="'Open Sans',verdana,arial,sans-serif" font-size="12" text-anchor="end" transform="translate(0 258.25)" class="" style="white-space:pre">1,500</text><text x="54.6" y="4.2" fill="#178600" font-family="'Open Sans',verdana,arial,sans-serif" font-size="12" text-anchor="end" transform="translate(0 208)" class="" style="white-space:pre">2,000</text><text x="54.6" y="4.2" fill="#178600" font-family="'Open Sans',verdana,arial,sans-serif" font-size="12" text-anchor="end" transform="translate(0 157.75)" class="" style="white-space:pre">2,500</text><text x="54.6" y="4.2" fill="#178600" font-family="'Open Sans',verdana,arial,sans-serif" font-size="12" text-anchor="end" transform="translate(0 107.5)" class="" style="white-space:pre">3,000</text><text x="54.6" y="4.2" fill="#178600" font-family="'Open Sans',verdana,arial,sans-serif" font-size="12" text-anchor="end" transform="translate(0 57.25)" class="" style="white-space:pre">3,500</text><text x="54.6" y="4.2" fill="#178600" font-family="'Open Sans',verdana,arial,sans-serif" font-size="12" text-anchor="end" transform="translate(0 7)" class="" style="white-space:pre">4,000</text></g></g></g><defs><clipPath id="c"><path d="M0 0H107V257H0z"/></clipPath></defs><g class="layer-above"><path fill="none" stroke="#0f4d00" stroke-width="2" d="M63 7h729" clip-path="url('#b')" data-index="0" class=""/></g><g class="infolayer"><g class="legend" pointer-events="all" transform="translate(793 7)"><path fill="#0d1117" d="M0 0H107V257H0z" class="bg" shape-rendering="crispEdges"/><g class="scrollbox" clip-path="url('#c')"><g class="groups"><g class="traces" transform="translate(0 14.5)"><text x="40" y="4.68" class="legendtext user-select-none" style="white-space:pre" fill="#178600" font-family="'Open Sans',verdana,arial,sans-serif" font-size="12">Markdown</text><g class="layers"><g class="legendsymbols"><g class="legendpoints"><path fill="#3e4053" d="M26 6H14V-6h12z" class="legendundefined"/></g></g></g><path fill="none" d="M0 -9.5H101.97V9.5H0z" class="legendtoggle" cursor="pointer"/></g><g class="traces" transform="translate(0 33.5)"><text x="40" y="4.68" class="legendtext user-select-none" style="white-space:pre" fill="#178600" font-family="'Open Sans',verdana,arial,sans-serif" font-size="12">zsh</text><g class="layers"><g class="legendsymbols"><g class="legendpoints"><path fill="#f15854" d="M26 6H14V-6h12z" class="legendundefined"/></g></g></g><path fill="none" d="M0 -9.5H101.97V9.5H0z" class="legendtoggle" cursor="pointer"/></g><g class="traces" transform="translate(0 52.5)"><text x="40" y="4.68" class="legendtext user-select-none" style="white-space:pre" fill="#178600" font-family="'Open Sans',verdana,arial,sans-serif" font-size="12">Go</text><g class="layers"><g class="legendsymbols"><g class="legendpoints"><path fill="#5da5da" d="M26 6H14V-6h12z" class="legendundefined"/></g></g></g><path fill="none" d="M0 -9.5H101.97V9.5H0z" class="legendtoggle" cursor="pointer"/></g><g class="traces" transform="translate(0 71.5)"><text x="40" y="4.68" class="legendtext user-select-none" style="white-space:pre" fill="#178600" font-family="'Open Sans',verdana,arial,sans-serif" font-size="12">nix</text><g class="layers"><g class="legendsymbols"><g class="legendpoints"><path fill="#faa43a" d="M26 6H14V-6h12z" class="legendundefined"/></g></g></g><path fill="none" d="M0 -9.5H101.97V9.5H0z" class="legendtoggle" cursor="pointer"/></g><g class="traces" transform="translate(0 90.5)"><text x="40" y="4.68" class="legendtext user-select-none" style="white-space:pre" fill="#178600" font-family="'Open Sans',verdana,arial,sans-serif" font-size="12">JSON</text><g class="layers"><g class="legendsymbols"><g class="legendpoints"><path fill="#60bd68" d="M26 6H14V-6h12z" class="legendundefined"/></g></g></g><path fill="none" d="M0 -9.5H101.97V9.5H0z" class="legendtoggle" cursor="pointer"/></g><g class="traces" transform="translate(0 109.5)"><text x="40" y="4.68" class="legendtext user-select-none" style="white-space:pre" fill="#178600" font-family="'Open Sans',verdana,arial,sans-serif" font-size="12">Kotlin</text><g class="layers"><g class="legendsymbols"><g class="legendpoints"><path fill="#f17cb0" d="M26 6H14V-6h12z" class="legendundefined"/></g></g></g><path fill="none" d="M0 -9.5H101.97V9.5H0z" class="legendtoggle" cursor="pointer"/></g><g class="traces" transform="translate(0 128.5)"><text x="40" y="4.68" class="legendtext user-select-none" style="white-space:pre" fill="#178600" font-family="'Open Sans',verdana,arial,sans-serif" font-size="12">Python</text><g class="layers"><g class="legendsymbols"><g class="legendpoints"><path fill="#b2912f" d="M26 6H14V-6h12z" class="legendundefined"/></g></g></g><path fill="none" d="M0 -9.5H101.97V9.5H0z" class="legendtoggle" cursor="pointer"/></g><g class="traces" transform="translate(0 147.5)"><text x="40" y="4.68" class="legendtext user-select-none" style="white-space:pre" fill="#178600" font-family="'Open Sans',verdana,arial,sans-serif" font-size="12">text</text><g class="layers"><g class="legendsymbols"><g class="legendpoints"><path fill="#decf3f" d="M26 6H14V-6h12z" class="legendundefined"/></g></g></g><path fill="none" d="M0 -9.5H101.97V9.5H0z" class="legendtoggle" cursor="pointer"/></g><g class="traces" transform="translate(0 166.5)"><text x="40" y="4.68" class="legendtext user-select-none" style="white-space:pre" fill="#178600" font-family="'Open Sans',verdana,arial,sans-serif" font-size="12">desktop</text><g class="layers"><g class="legendsymbols"><g class="legendpoints"><path fill="#b276b2" d="M26 6H14V-6h12z" class="legendundefined"/></g></g></g><path fill="none" d="M0 -9.5H101.97V9.5H0z" class="legendtoggle" cursor="pointer"/></g><g class="traces" transform="translate(0 185.5)"><text x="40" y="4.68" class="legendtext user-select-none" style="white-space:pre" fill="#178600" font-family="'Open Sans',verdana,arial,sans-serif" font-size="12">fish</text><g class="layers"><g class="legendsymbols"><g class="legendpoints"><path fill="#3e4053" d="M26 6H14V-6h12z" class="legendundefined"/></g></g></g><path fill="none" d="M0 -9.5H101.97V9.5H0z" class="legendtoggle" cursor="pointer"/></g><g class="traces" transform="translate(0 204.5)"><text x="40" y="4.68" class="legendtext user-select-none" style="white-space:pre" fill="#178600" font-family="'Open Sans',verdana,arial,sans-serif" font-size="12">Bash</text><g class="layers"><g class="legendsymbols"><g class="legendpoints"><path fill="#f15854" d="M26 6H14V-6h12z" class="legendundefined"/></g></g></g><path fill="none" d="M0 -9.5H101.97V9.5H0z" class="legendtoggle" cursor="pointer"/></g><g class="traces" transform="translate(0 223.5)"><text x="40" y="4.68" class="legendtext user-select-none" style="white-space:pre" fill="#178600" font-family="'Open Sans',verdana,arial,sans-serif" font-size="12">netrw</text><g class="layers"><g class="legendsymbols"><g class="legendpoints"><path fill="#5da5da" d="M26 6H14V-6h12z" class="legendundefined"/></g></g></g><path fill="none" d="M0 -9.5H101.97V9.5H0z" class="legendtoggle" cursor="pointer"/></g><g class="traces" transform="translate(0 242.5)"><text x="40" y="4.68" class="legendtext user-select-none" style="white-space:pre" fill="#178600" font-family="'Open Sans',verdana,arial,sans-serif" font-size="12">lazy</text><g class="layers"><g class="legendsymbols"><g class="legendpoints"><path fill="#faa43a" d="M26 6H14V-6h12z" class="legendundefined"/></g></g></g><path fill="none" d="M0 -9.5H101.97V9.5H0z" class="legendtoggle" cursor="pointer"/></g></g></g></g><g class="g-ytitle"><text x=".43" y="208" fill="#178600" class="ytitle" font-family="'Open Sans',verdana,arial,sans-serif" font-size="14" font-weight="400" text-anchor="middle" transform="translate(12.57) rotate(-90 .43 208)" style="white-space:pre">XP</text></g></g></svg>
