<svg xmlns="http://www.w3.org/2000/svg" width="900" height="450" class="main-svg"><path fill="#0d1117" d="M0 0H900V450H0z"/><defs><clipPath id="a" class="plotclip"><path d="M0 0H689V402H0z"/></clipPath><clipPath class="axesclip"><path d="M62 0H751V450H62z"/></clipPath><clipPath class="axesclip"><path d="M0 7H900V409H0z"/></clipPath><clipPath id="b" class="axesclip"><path d="M62 7H751V409H62z"/></clipPath></defs><g class="cartesianlayer"><g class="subplot xy"><g class="gridlayer"><g class="x"><path stroke="#0f4d00" stroke-width="1" d="M85.9 7v402M108.8 7v402M131.7 7v402M154.6 7v402M177.5 7v402M200.4 7v402M223.3 7v402M246.2 7v402M269.1 7v402M292 7v402M314.9 7v402M337.8 7v402M360.7 7v402M383.6 7v402M406.5 7v402M429.4 7v402M452.3 7v402M475.2 7v402M498.1 7v402M521 7v402M543.9 7v402M566.8 7v402M589.7 7v402M612.6 7v402M635.5 7v402M658.4 7v402M681.3 7v402M704.2 7v402M727.1 7v402" class="xgrid crisp"/></g><g class="y"><path stroke="#0f4d00" stroke-width="1" d="M62 351.57h689M62 294.14h689M62 236.71h689M62 179.29h689M62 121.86h689M62 64.43h689" class="ygrid crisp"/></g></g><g class="zerolinelayer"><path stroke="#178600" stroke-width="1" d="M62 409h689" class="yzl zl crisp"/></g><g class="plot" clip-path="url('#a')" transform="translate(62 7)"><g class="barlayer mlayer"><g class="trace bars" shape-rendering="crispEdges"><g class="points"><path fill="#3e4053" d="M4.44 402v-93.84h16.03V402zM27.34 402v-4.82h16.03V402zM50.24 402v-31.93h16.03V402zM73.14 402V209.27h16.03V402zM96.04 402v-87.75h16.03V402zM118.94 402v-18.15h16.03V402zM141.84 402v-22.63h16.03V402zM164.74 402v-3.45h16.03V402zM187.64 402h16.03zM210.54 402h16.03zM233.44 402h16.03zM256.34 402h16.03zM279.24 402v-5.97h16.03V402zM302.14 402v-10.91h16.03V402zM325.04 402h16.03zM347.94 402v-4.71h16.03V402zM370.84 402h16.03zM393.74 402v-17.92h16.03V402zM416.64 402v-79.83h16.03V402zM439.54 402v-3.45h16.03V402zM462.44 402h16.03zM485.34 402v-46.86h16.03V402zM508.24 402v-61.45h16.03V402zM531.14 402v-.57h16.03v.57zM554.04 402V276.69h16.03V402zM576.94 402V290.36h16.03V402zM599.84 402V227.42h16.03V402zM622.74 402V297.48h16.03V402zM645.64 402V278.41h16.03V402zM668.54 402v-23.78h16.03V402z" vector-effect="non-scaling-stroke" class=""/></g></g><g class="trace bars" shape-rendering="crispEdges"><g class="points"><path fill="#f15854" d="M4.44 308.16h16.03zM27.34 397.18V283.47h16.03v113.71zM50.24 370.07h16.03zM73.14 209.27v-23.89h16.03v23.89zM96.04 314.25h16.03zM118.94 383.85h16.03zM141.84 379.37h16.03zM164.74 398.55h16.03zM187.64 402V229.25h16.03V402zM210.54 402h16.03zM233.44 402V225.23h16.03V402zM256.34 402V30.55h16.03V402zM279.24 396.03h16.03zM302.14 391.09h16.03zM325.04 402h16.03zM347.94 397.29h16.03zM370.84 402h16.03zM393.74 384.08h16.03zM416.64 322.17h16.03zM439.54 398.55h16.03zM462.44 402h16.03zM485.34 355.14h16.03zM508.24 340.55h16.03zM531.14 401.43h16.03zM554.04 276.69h16.03zM576.94 290.36h16.03zM599.84 227.42h16.03zM622.74 297.48h16.03zM645.64 278.41h16.03zM668.54 378.22V228.8h16.03v149.42z" vector-effect="non-scaling-stroke" class=""/></g></g><g class="trace bars" shape-rendering="crispEdges"><g class="points"><path fill="#5da5da" d="M4.44 308.16h16.03zM27.34 283.47h16.03zM50.24 370.07h16.03zM73.14 185.38h16.03zM96.04 314.25h16.03zM118.94 383.85h16.03zM141.84 379.37h16.03zM164.74 398.55h16.03zM187.64 229.25h16.03zM210.54 402h16.03zM233.44 225.23h16.03zM256.34 30.55h16.03zM279.24 396.03h16.03zM302.14 391.09h16.03zM325.04 402h16.03zM347.94 397.29v-9.88h16.03v9.88zM370.84 402h16.03zM393.74 384.08v-4.94h16.03v4.94zM416.64 322.17v-.11h16.03v.11zM439.54 398.55h16.03zM462.44 402h16.03zM485.34 355.14h16.03zM508.24 340.55h16.03zM531.14 401.43h16.03zM554.04 276.69h16.03zM576.94 290.36h16.03zM599.84 227.42h16.03zM622.74 297.48h16.03zM645.64 278.41v-.11h16.03v.11zM668.54 228.8v-81.32h16.03v81.32z" vector-effect="non-scaling-stroke" class=""/></g></g><g class="trace bars" shape-rendering="crispEdges"><g class="points"><path fill="#faa43a" d="M4.44 308.16h16.03zM27.34 283.47h16.03zM50.24 370.07h16.03zM73.14 185.38h16.03zM96.04 314.25h16.03zM118.94 383.85h16.03zM141.84 379.37h16.03zM164.74 398.55h16.03zM187.64 229.25h16.03zM210.54 402h16.03zM233.44 225.23h16.03zM256.34 30.55h16.03zM279.24 396.03h16.03zM302.14 391.09h16.03zM325.04 402h16.03zM347.94 387.41h16.03zM370.84 402h16.03zM393.74 379.14h16.03zM416.64 322.06h16.03zM439.54 398.55h16.03zM462.44 402h16.03zM485.34 355.14h16.03zM508.24 340.55h16.03zM531.14 401.43v-23.44h16.03v23.44zM554.04 276.69v-32.62h16.03v32.62zM576.94 290.36v-12.98h16.03v12.98zM599.84 227.42v-.58h16.03v.58zM622.74 297.48h16.03zM645.64 278.3h16.03zM668.54 147.48h16.03z" vector-effect="non-scaling-stroke" class=""/></g></g><g class="trace bars" shape-rendering="crispEdges"><g class="points"><path fill="#60bd68" d="M4.44 308.16h16.03zM27.34 283.47h16.03zM50.24 370.07h16.03zM73.14 185.38h16.03zM96.04 314.25v-14.13h16.03v14.13zM118.94 383.85h16.03zM141.84 379.37h16.03zM164.74 398.55h16.03zM187.64 229.25h16.03zM210.54 402h16.03zM233.44 225.23h16.03zM256.34 30.55h16.03zM279.24 396.03h16.03zM302.14 391.09h16.03zM325.04 402h16.03zM347.94 387.41h16.03zM370.84 402h16.03zM393.74 379.14h16.03zM416.64 322.06h16.03zM439.54 398.55h16.03zM462.44 402h16.03zM485.34 355.14h16.03zM508.24 340.55v-3.67h16.03v3.67zM531.14 377.99h16.03zM554.04 244.07v-24.69h16.03v24.69zM576.94 277.38v-10.8h16.03v10.8zM599.84 226.84v-2.75h16.03v2.75zM622.74 297.48v-.57h16.03v.57zM645.64 278.3h16.03zM668.54 147.48v-.46h16.03v.46z" vector-effect="non-scaling-stroke" class=""/></g></g><g class="trace bars" shape-rendering="crispEdges"><g class="points"><path fill="#f17cb0" d="M4.44 308.16h16.03zM27.34 283.47h16.03zM50.24 370.07h16.03zM73.14 185.38h16.03zM96.04 300.12v-8.38h16.03v8.38zM118.94 383.85v-.69h16.03v.69zM141.84 379.37h16.03zM164.74 398.55h16.03zM187.64 229.25h16.03zM210.54 402h16.03zM233.44 225.23h16.03zM256.34 30.55h16.03zM279.24 396.03h16.03zM302.14 391.09h16.03zM325.04 402h16.03zM347.94 387.41h16.03zM370.84 402h16.03zM393.74 379.14h16.03zM416.64 322.06v-3.91h16.03v3.91zM439.54 398.55h16.03zM462.44 402h16.03zM485.34 355.14h16.03zM508.24 336.88v-14.36h16.03v14.36zM531.14 377.99h16.03zM554.04 219.38h16.03zM576.94 266.58h16.03zM599.84 224.09v-12.64h16.03v12.64zM622.74 296.91h16.03zM645.64 278.3h16.03zM668.54 147.02h16.03z" vector-effect="non-scaling-stroke" class=""/></g></g><g class="trace bars" shape-rendering="crispEdges"><g class="points"><path fill="#b2912f" d="M4.44 308.16h16.03zM27.34 283.47h16.03zM50.24 370.07h16.03zM73.14 185.38h16.03zM96.04 291.74h16.03zM118.94 383.16h16.03zM141.84 379.37h16.03zM164.74 398.55h16.03zM187.64 229.25h16.03zM210.54 402h16.03zM233.44 225.23h16.03zM256.34 30.55h16.03zM279.24 396.03h16.03zM302.14 391.09v-18.26h16.03v18.26zM325.04 402h16.03zM347.94 387.41h16.03zM370.84 402h16.03zM393.74 379.14h16.03zM416.64 318.15h16.03zM439.54 398.55h16.03zM462.44 402h16.03zM485.34 355.14h16.03zM508.24 322.52h16.03zM531.14 377.99h16.03zM554.04 219.38h16.03zM576.94 266.58h16.03zM599.84 211.45v-14.7h16.03v14.7zM622.74 296.91h16.03zM645.64 278.3h16.03zM668.54 147.02h16.03z" vector-effect="non-scaling-stroke" class=""/></g></g><g class="trace bars" shape-rendering="crispEdges"><g class="points"><path fill="#decf3f" d="M4.44 308.16h16.03zM27.34 283.47h16.03zM50.24 370.07h16.03zM73.14 185.38v-18.26h16.03v18.26zM96.04 291.74v-9.42h16.03v9.42zM118.94 383.16h16.03zM141.84 379.37h16.03zM164.74 398.55h16.03zM187.64 229.25h16.03zM210.54 402h16.03zM233.44 225.23h16.03zM256.34 30.55h16.03zM279.24 396.03h16.03zM302.14 372.83h16.03zM325.04 402h16.03zM347.94 387.41h16.03zM370.84 402h16.03zM393.74 379.14h16.03zM416.64 318.15h16.03zM439.54 398.55h16.03zM462.44 402h16.03zM485.34 355.14h16.03zM508.24 322.52h16.03zM531.14 377.99h16.03zM554.04 219.38h16.03zM576.94 266.58h16.03zM599.84 196.75h16.03zM622.74 296.91h16.03zM645.64 278.3h16.03zM668.54 147.02h16.03z" vector-effect="non-scaling-stroke" class=""/></g></g><g class="trace bars" shape-rendering="crispEdges"><g class="points"><path fill="#b276b2" d="M4.44 308.16v-15.39h16.03v15.39zM27.34 283.47h16.03zM50.24 370.07h16.03zM73.14 167.12v-.23h16.03v.23zM96.04 282.32v-2.53h16.03v2.53zM118.94 383.16h16.03zM141.84 379.37h16.03zM164.74 398.55h16.03zM187.64 229.25h16.03zM210.54 402h16.03zM233.44 225.23h16.03zM256.34 30.55h16.03zM279.24 396.03h16.03zM302.14 372.83h16.03zM325.04 402h16.03zM347.94 387.41h16.03zM370.84 402h16.03zM393.74 379.14h16.03zM416.64 318.15h16.03zM439.54 398.55h16.03zM462.44 402h16.03zM485.34 355.14h16.03zM508.24 322.52h16.03zM531.14 377.99h16.03zM554.04 219.38h16.03zM576.94 266.58h16.03zM599.84 196.75h16.03zM622.74 296.91h16.03zM645.64 278.3h16.03zM668.54 147.02h16.03z" vector-effect="non-scaling-stroke" class=""/></g></g><g class="trace bars" shape-rendering="crispEdges"><g class="points"><path fill="#3e4053" d="M4.44 292.77h16.03zM27.34 283.47h16.03zM50.24 370.07h16.03zM73.14 166.89h16.03zM96.04 279.79v-14.36h16.03v14.36zM118.94 383.16h16.03zM141.84 379.37h16.03zM164.74 398.55h16.03zM187.64 229.25h16.03zM210.54 402h16.03zM233.44 225.23h16.03zM256.34 30.55h16.03zM279.24 396.03h16.03zM302.14 372.83h16.03zM325.04 402h16.03zM347.94 387.41h16.03zM370.84 402h16.03zM393.74 379.14h16.03zM416.64 318.15h16.03zM439.54 398.55h16.03zM462.44 402h16.03zM485.34 355.14h16.03zM508.24 322.52h16.03zM531.14 377.99h16.03zM554.04 219.38h16.03zM576.94 266.58h16.03zM599.84 196.75h16.03zM622.74 296.91h16.03zM645.64 278.3h16.03zM668.54 147.02h16.03z" vector-effect="non-scaling-stroke" class=""/></g></g><g class="trace bars" shape-rendering="crispEdges"><g class="points"><path fill="#f15854" d="M4.44 292.77h16.03zM27.34 283.47h16.03zM50.24 370.07h16.03zM73.14 166.89h16.03zM96.04 265.43v-5.62h16.03v5.62zM118.94 383.16h16.03zM141.84 379.37v-2.06h16.03v2.06zM164.74 398.55h16.03zM187.64 229.25h16.03zM210.54 402h16.03zM233.44 225.23h16.03zM256.34 30.55h16.03zM279.24 396.03h16.03zM302.14 372.83h16.03zM325.04 402h16.03zM347.94 387.41h16.03zM370.84 402h16.03zM393.74 379.14h16.03zM416.64 318.15h16.03zM439.54 398.55h16.03zM462.44 402h16.03zM485.34 355.14h16.03zM508.24 322.52h16.03zM531.14 377.99h16.03zM554.04 219.38h16.03zM576.94 266.58h16.03zM599.84 196.75h16.03zM622.74 296.91h16.03zM645.64 278.3h16.03zM668.54 147.02h16.03z" vector-effect="non-scaling-stroke" class=""/></g></g><g class="trace bars" shape-rendering="crispEdges"><g class="points"><path fill="#5da5da" d="M4.44 292.77h16.03zM27.34 283.47h16.03zM50.24 370.07h16.03zM73.14 166.89v-.69h16.03v.69zM96.04 259.81h16.03zM118.94 383.16h16.03zM141.84 377.31h16.03zM164.74 398.55h16.03zM187.64 229.25h16.03zM210.54 402h16.03zM233.44 225.23h16.03zM256.34 30.55h16.03zM279.24 396.03h16.03zM302.14 372.83h16.03zM325.04 402h16.03zM347.94 387.41v-2.29h16.03v2.29zM370.84 402h16.03zM393.74 379.14h16.03zM416.64 318.15h16.03zM439.54 398.55h16.03zM462.44 402h16.03zM485.34 355.14h16.03zM508.24 322.52h16.03zM531.14 377.99h16.03zM554.04 219.38h16.03zM576.94 266.58h16.03zM599.84 196.75h16.03zM622.74 296.91h16.03zM645.64 278.3h16.03zM668.54 147.02h16.03z" vector-effect="non-scaling-stroke" class=""/></g></g><g class="trace bars" shape-rendering="crispEdges"><g class="points"><path fill="#faa43a" d="M4.44 292.77h16.03zM27.34 283.47h16.03zM50.24 370.07h16.03zM73.14 166.2v-2.3h16.03v2.3zM96.04 259.81v-.58h16.03v.58zM118.94 383.16h16.03zM141.84 377.31h16.03zM164.74 398.55h16.03zM187.64 229.25h16.03zM210.54 402h16.03zM233.44 225.23h16.03zM256.34 30.55h16.03zM279.24 396.03h16.03zM302.14 372.83h16.03zM325.04 402h16.03zM347.94 385.12h16.03zM370.84 402h16.03zM393.74 379.14h16.03zM416.64 318.15h16.03zM439.54 398.55h16.03zM462.44 402h16.03zM485.34 355.14h16.03zM508.24 322.52h16.03zM531.14 377.99h16.03zM554.04 219.38h16.03zM576.94 266.58h16.03zM599.84 196.75h16.03zM622.74 296.91h16.03zM645.64 278.3h16.03zM668.54 147.02h16.03z" vector-effect="non-scaling-stroke" class=""/></g></g><g class="trace bars" shape-rendering="crispEdges"><g class="points"><path fill="#60bd68" d="M4.44 292.77h16.03zM27.34 283.47h16.03zM50.24 370.07h16.03zM73.14 163.9h16.03zM96.04 259.23h16.03zM118.94 383.16h16.03zM141.84 377.31h16.03zM164.74 398.55h16.03zM187.64 229.25h16.03zM210.54 402h16.03zM233.44 225.23h16.03zM256.34 30.55h16.03zM279.24 396.03h16.03zM302.14 372.83h16.03zM325.04 402h16.03zM347.94 385.12h16.03zM370.84 402h16.03zM393.74 379.14h16.03zM416.64 318.15h16.03zM439.54 398.55h16.03zM462.44 402h16.03zM485.34 355.14h16.03zM508.24 322.52v-2.41h16.03v2.41zM531.14 377.99h16.03zM554.04 219.38h16.03zM576.94 266.58h16.03zM599.84 196.75h16.03zM622.74 296.91v-.46h16.03v.46zM645.64 278.3h16.03zM668.54 147.02h16.03z" vector-effect="non-scaling-stroke" class=""/></g></g><g class="trace bars" shape-rendering="crispEdges"><g class="points"><path fill="#f17cb0" d="M4.44 292.77h16.03zM27.34 283.47h16.03zM50.24 370.07h16.03zM73.14 163.9h16.03zM96.04 259.23v-2.06h16.03v2.06zM118.94 383.16h16.03zM141.84 377.31h16.03zM164.74 398.55h16.03zM187.64 229.25h16.03zM210.54 402h16.03zM233.44 225.23h16.03zM256.34 30.55h16.03zM279.24 396.03h16.03zM302.14 372.83h16.03zM325.04 402h16.03zM347.94 385.12h16.03zM370.84 402h16.03zM393.74 379.14h16.03zM416.64 318.15h16.03zM439.54 398.55h16.03zM462.44 402h16.03zM485.34 355.14h16.03zM508.24 320.11h16.03zM531.14 377.99h16.03zM554.04 219.38h16.03zM576.94 266.58h16.03zM599.84 196.75h16.03zM622.74 296.45h16.03zM645.64 278.3h16.03zM668.54 147.02h16.03z" vector-effect="non-scaling-stroke" class=""/></g></g><g class="trace bars" shape-rendering="crispEdges"><g class="points"><path fill="#b2912f" d="M4.44 292.77v-.11h16.03v.11zM27.34 283.47h16.03zM50.24 370.07h16.03zM73.14 163.9v-.57h16.03v.57zM96.04 257.17v-.81h16.03v.81zM118.94 383.16h16.03zM141.84 377.31h16.03zM164.74 398.55h16.03zM187.64 229.25h16.03zM210.54 402h16.03zM233.44 225.23h16.03zM256.34 30.55h16.03zM279.24 396.03h16.03zM302.14 372.83h16.03zM325.04 402h16.03zM347.94 385.12h16.03zM370.84 402h16.03zM393.74 379.14h16.03zM416.64 318.15h16.03zM439.54 398.55h16.03zM462.44 402h16.03zM485.34 355.14h16.03zM508.24 320.11h16.03zM531.14 377.99h16.03zM554.04 219.38v-1.84h16.03v1.84zM576.94 266.58h16.03zM599.84 196.75h16.03zM622.74 296.45h16.03zM645.64 278.3h16.03zM668.54 147.02h16.03z" vector-effect="non-scaling-stroke" class=""/></g></g></g></g><path fill="none" stroke="#0f4d00" stroke-width="1" d="M61.5 7v402" class="ylines-above crisp"/><g class="xaxislayer-above"><path stroke="#0f4d00" stroke-width="1" d="M63 410v4M85.9 410v4M108.8 410v4M131.7 410v4M154.6 410v4M177.5 410v4M200.4 410v4M223.3 410v4M246.2 410v4M269.1 410v4M292 410v4M314.9 410v4M337.8 410v4M360.7 410v4M383.6 410v4M406.5 410v4M429.4 410v4M452.3 410v4M475.2 410v4M498.1 410v4M521 410v4M543.9 410v4M566.8 410v4M589.7 410v4M612.6 410v4M635.5 410v4M658.4 410v4M681.3 410v4M704.2 410v4M727.1 410v4M750 410v4" class="xtick ticks crisp"/><text y="422" fill="#178600" font-family="'Open Sans',verdana,arial,sans-serif" font-size="12" text-anchor="end" transform="rotate(-45 37.22 326.13)" class="" style="white-space:pre">Jun 17</text><text y="422" fill="#178600" font-family="'Open Sans',verdana,arial,sans-serif" font-size="12" text-anchor="end" transform="rotate(-45 48.67 298.49)" class="" style="white-space:pre">Jun 18</text><text y="422" fill="#178600" font-family="'Open Sans',verdana,arial,sans-serif" font-size="12" text-anchor="end" transform="rotate(-45 60.12 270.85)" class="" style="white-space:pre">Jun 19</text><text y="422" fill="#178600" font-family="'Open Sans',verdana,arial,sans-serif" font-size="12" text-anchor="end" transform="rotate(-45 71.57 243.2)" class="" style="white-space:pre">Jun 20</text><text y="422" fill="#178600" font-family="'Open Sans',verdana,arial,sans-serif" font-size="12" text-anchor="end" transform="rotate(-45 83.02 215.56)" class="" style="white-space:pre">Jun 21</text><text y="422" fill="#178600" font-family="'Open Sans',verdana,arial,sans-serif" font-size="12" text-anchor="end" transform="rotate(-45 94.47 187.92)" class="" style="white-space:pre">Jun 22</text><text y="422" fill="#178600" font-family="'Open Sans',verdana,arial,sans-serif" font-size="12" text-anchor="end" transform="rotate(-45 105.92 160.27)" class="" style="white-space:pre">Jun 23</text><text y="422" fill="#178600" font-family="'Open Sans',verdana,arial,sans-serif" font-size="12" text-anchor="end" transform="rotate(-45 117.37 132.63)" class="" style="white-space:pre">Jun 24</text><text y="422" fill="#178600" font-family="'Open Sans',verdana,arial,sans-serif" font-size="12" text-anchor="end" transform="rotate(-45 128.82 104.99)" class="" style="white-space:pre">Jun 25</text><text y="422" fill="#178600" font-family="'Open Sans',verdana,arial,sans-serif" font-size="12" text-anchor="end" transform="rotate(-45 140.27 77.35)" class="" style="white-space:pre">Jun 26</text><text y="422" fill="#178600" font-family="'Open Sans',verdana,arial,sans-serif" font-size="12" text-anchor="end" transform="rotate(-45 151.72 49.7)" class="" style="white-space:pre">Jun 27</text><text y="422" fill="#178600" font-family="'Open Sans',verdana,arial,sans-serif" font-size="12" text-anchor="end" transform="rotate(-45 163.18 22.06)" class="" style="white-space:pre">Jun 28</text><text y="422" fill="#178600" font-family="'Open Sans',verdana,arial,sans-serif" font-size="12" text-anchor="end" transform="rotate(-45 174.62 -5.58)" class="" style="white-space:pre">Jun 29</text><text y="422" fill="#178600" font-family="'Open Sans',verdana,arial,sans-serif" font-size="12" text-anchor="end" transform="rotate(-45 186.07 -33.22)" class="" style="white-space:pre">Jun 30</text><text y="422" fill="#178600" font-family="'Open Sans',verdana,arial,sans-serif" font-size="12" text-anchor="end" transform="rotate(-45 197.53 -60.87)" class="" style="white-space:pre">Jul 1</text><text y="422" fill="#178600" font-family="'Open Sans',verdana,arial,sans-serif" font-size="12" text-anchor="end" transform="rotate(-45 208.97 -88.51)" class="" style="white-space:pre">Jul 2</text><text y="422" fill="#178600" font-family="'Open Sans',verdana,arial,sans-serif" font-size="12" text-anchor="end" transform="rotate(-45 220.43 -116.15)" class="" style="white-space:pre">Jul 3</text><text y="422" fill="#178600" font-family="'Open Sans',verdana,arial,sans-serif" font-size="12" text-anchor="end" transform="rotate(-45 231.87 -143.8)" class="" style="white-space:pre">Jul 4</text><text y="422" fill="#178600" font-family="'Open Sans',verdana,arial,sans-serif" font-size="12" text-anchor="end" transform="rotate(-45 243.32 -171.44)" class="" style="white-space:pre">Jul 5</text><text y="422" fill="#178600" font-family="'Open Sans',verdana,arial,sans-serif" font-size="12" text-anchor="end" transform="rotate(-45 254.78 -199.08)" class="" style="white-space:pre">Jul 6</text><text y="422" fill="#178600" font-family="'Open Sans',verdana,arial,sans-serif" font-size="12" text-anchor="end" transform="rotate(-45 266.23 -226.72)" class="" style="white-space:pre">Jul 7</text><text y="422" fill="#178600" font-family="'Open Sans',verdana,arial,sans-serif" font-size="12" text-anchor="end" transform="rotate(-45 277.67 -254.37)" class="" style="white-space:pre">Jul 8</text><text y="422" fill="#178600" font-family="'Open Sans',verdana,arial,sans-serif" font-size="12" text-anchor="end" transform="rotate(-45 289.13 -282)" class="" style="white-space:pre">Jul 9</text><text y="422" fill="#178600" font-family="'Open Sans',verdana,arial,sans-serif" font-size="12" text-anchor="end" transform="rotate(-45 300.57 -309.65)" class="" style="white-space:pre">Jul 10</text><text y="422" fill="#178600" font-family="'Open Sans',verdana,arial,sans-serif" font-size="12" text-anchor="end" transform="rotate(-45 312.02 -337.3)" class="" style="white-space:pre">Jul 11</text><text y="422" fill="#178600" font-family="'Open Sans',verdana,arial,sans-serif" font-size="12" text-anchor="end" transform="rotate(-45 323.48 -364.94)" class="" style="white-space:pre">Jul 12</text><text y="422" fill="#178600" font-family="'Open Sans',verdana,arial,sans-serif" font-size="12" text-anchor="end" transform="rotate(-45 334.93 -392.58)" class="" style="white-space:pre">Jul 13</text><text y="422" fill="#178600" font-family="'Open Sans',verdana,arial,sans-serif" font-size="12" text-anchor="end" transform="rotate(-45 346.37 -420.22)" class="" style="white-space:pre">Jul 14</text><text y="422" fill="#178600" font-family="'Open Sans',verdana,arial,sans-serif" font-size="12" text-anchor="end" transform="rotate(-45 357.82 -447.87)" class="" style="white-space:pre">Jul 15</text><text y="422" fill="#178600" font-family="'Open Sans',verdana,arial,sans-serif" font-size="12" text-anchor="end" transform="rotate(-45 369.27 -475.5)" class="" style="white-space:pre">Jul 16</text></g><g class="yaxislayer-above"><path stroke="#0f4d00" stroke-width="1" d="M61 409h-4M61 351.57h-4M61 294.14h-4M61 236.71h-4M61 179.29h-4M61 121.86h-4M61 64.43h-4M61 7h-4" class="ytick ticks crisp"/><text x="54.6" y="4.2" fill="#178600" font-family="'Open Sans',verdana,arial,sans-serif" font-size="12" text-anchor="end" transform="translate(0 409)" class="" style="white-space:pre">0</text><text x="54.6" y="4.2" fill="#178600" font-family="'Open Sans',verdana,arial,sans-serif" font-size="12" text-anchor="end" transform="translate(0 351.57)" class="" style="white-space:pre">500</text><text x="54.6" y="4.2" fill="#178600" font-family="'Open Sans',verdana,arial,sans-serif" font-size="12" text-anchor="end" transform="translate(0 294.14)" class="" style="white-space:pre">1,000</text><text x="54.6" y="4.2" fill="#178600" font-family="'Open Sans',verdana,arial,sans-serif" font-size="12" text-anchor="end" transform="translate(0 236.71)" class="" style="white-space:pre">1,500</text><text x="54.6" y="4.2" fill="#178600" font-family="'Open Sans',verdana,arial,sans-serif" font-size="12" text-anchor="end" transform="translate(0 179.29)" class="" style="white-space:pre">2,000</text><text x="54.6" y="4.2" fill="#178600" font-family="'Open Sans',verdana,arial,sans-serif" font-size="12" text-anchor="end" transform="translate(0 121.86)" class="" style="white-space:pre">2,500</text><text x="54.6" y="4.2" fill="#178600" font-family="'Open Sans',verdana,arial,sans-serif" font-size="12" text-anchor="end" transform="translate(0 64.43)" class="" style="white-space:pre">3,000</text><text x="54.6" y="4.2" fill="#178600" font-family="'Open Sans',verdana,arial,sans-serif" font-size="12" text-anchor="end" transform="translate(0 7)" class="" style="white-space:pre">3,500</text></g></g></g><defs><clipPath id="c"><path d="M0 0H149V314H0z"/></clipPath></defs><g class="layer-above"><path fill="none" stroke="#0f4d00" stroke-width="2" d="M63 7h687" clip-path="url('#b')" data-index="0" class=""/></g><g class="infolayer"><g class="legend" pointer-events="all" transform="translate(751 7)"><path fill="#0d1117" d="M0 0H149V314H0z" class="bg" shape-rendering="crispEdges"/><g class="scrollbox" clip-path="url('#c')"><g class="groups"><g class="traces" transform="translate(0 14.5)"><text x="40" y="4.68" class="legendtext user-select-none" style="white-space:pre" fill="#178600" font-family="'Open Sans',verdana,arial,sans-serif" font-size="12">zsh</text><g class="layers"><g class="legendsymbols"><g class="legendpoints"><path fill="#3e4053" d="M26 6H14V-6h12z" class="legendundefined"/></g></g></g><path fill="none" d="M0 -9.5H143.16V9.5H0z" class="legendtoggle" cursor="pointer"/></g><g class="traces" transform="translate(0 33.5)"><text x="40" y="4.68" class="legendtext user-select-none" style="white-space:pre" fill="#178600" font-family="'Open Sans',verdana,arial,sans-serif" font-size="12">Go</text><g class="layers"><g class="legendsymbols"><g class="legendpoints"><path fill="#f15854" d="M26 6H14V-6h12z" class="legendundefined"/></g></g></g><path fill="none" d="M0 -9.5H143.16V9.5H0z" class="legendtoggle" cursor="pointer"/></g><g class="traces" transform="translate(0 52.5)"><text x="40" y="4.68" class="legendtext user-select-none" style="white-space:pre" fill="#178600" font-family="'Open Sans',verdana,arial,sans-serif" font-size="12">Markdown</text><g class="layers"><g class="legendsymbols"><g class="legendpoints"><path fill="#5da5da" d="M26 6H14V-6h12z" class="legendundefined"/></g></g></g><path fill="none" d="M0 -9.5H143.16V9.5H0z" class="legendtoggle" cursor="pointer"/></g><g class="traces" transform="translate(0 71.5)"><text x="40" y="4.68" class="legendtext user-select-none" style="white-space:pre" fill="#178600" font-family="'Open Sans',verdana,arial,sans-serif" font-size="12">nix</text><g class="layers"><g class="legendsymbols"><g class="legendpoints"><path fill="#faa43a" d="M26 6H14V-6h12z" class="legendundefined"/></g></g></g><path fill="none" d="M0 -9.5H143.16V9.5H0z" class="legendtoggle" cursor="pointer"/></g><g class="traces" transform="translate(0 90.5)"><text x="40" y="4.68" class="legendtext user-select-none" style="white-space:pre" fill="#178600" font-family="'Open Sans',verdana,arial,sans-serif" font-size="12">JSON</text><g class="layers"><g class="legendsymbols"><g class="legendpoints"><path fill="#60bd68" d="M26 6H14V-6h12z" class="legendundefined"/></g></g></g><path fill="none" d="M0 -9.5H143.16V9.5H0z" class="legendtoggle" cursor="pointer"/></g><g class="traces" transform="translate(0 109.5)"><text x="40" y="4.68" class="legendtext user-select-none" style="white-space:pre" fill="#178600" font-family="'Open Sans',verdana,arial,sans-serif" font-size="12">Python</text><g class="layers"><g class="legendsymbols"><g class="legendpoints"><path fill="#f17cb0" d="M26 6H14V-6h12z" class="legendundefined"/></g></g></g><path fill="none" d="M0 -9.5H143.16V9.5H0z" class="legendtoggle" cursor="pointer"/></g><g class="traces" transform="translate(0 128.5)"><text x="40" y="4.68" class="legendtext user-select-none" style="white-space:pre" fill="#178600" font-family="'Open Sans',verdana,arial,sans-serif" font-size="12">Kotlin</text><g class="layers"><g class="legendsymbols"><g class="legendpoints"><path fill="#b2912f" d="M26 6H14V-6h12z" class="legendundefined"/></g></g></g><path fill="none" d="M0 -9.5H143.16V9.5H0z" class="legendtoggle" cursor="pointer"/></g><g class="traces" transform="translate(0 147.5)"><text x="40" y="4.68" class="legendtext user-select-none" style="white-space:pre" fill="#178600" font-family="'Open Sans',verdana,arial,sans-serif" font-size="12">hyprlang</text><g class="layers"><g class="legendsymbols"><g class="legendpoints"><path fill="#decf3f" d="M26 6H14V-6h12z" class="legendundefined"/></g></g></g><path fill="none" d="M0 -9.5H143.16V9.5H0z" class="legendtoggle" cursor="pointer"/></g><g class="traces" transform="translate(0 166.5)"><text x="40" y="4.68" class="legendtext user-select-none" style="white-space:pre" fill="#178600" font-family="'Open Sans',verdana,arial,sans-serif" font-size="12">Shell Script</text><g class="layers"><g class="legendsymbols"><g class="legendpoints"><path fill="#b276b2" d="M26 6H14V-6h12z" class="legendundefined"/></g></g></g><path fill="none" d="M0 -9.5H143.16V9.5H0z" class="legendtoggle" cursor="pointer"/></g><g class="traces" transform="translate(0 185.5)"><text x="40" y="4.68" class="legendtext user-select-none" style="white-space:pre" fill="#178600" font-family="'Open Sans',verdana,arial,sans-serif" font-size="12">Java</text><g class="layers"><g class="legendsymbols"><g class="legendpoints"><path fill="#3e4053" d="M26 6H14V-6h12z" class="legendundefined"/></g></g></g><path fill="none" d="M0 -9.5H143.16V9.5H0z" class="legendtoggle" cursor="pointer"/></g><g class="traces" transform="translate(0 204.5)"><text x="40" y="4.68" class="legendtext user-select-none" style="white-space:pre" fill="#178600" font-family="'Open Sans',verdana,arial,sans-serif" font-size="12">Lua</text><g class="layers"><g class="legendsymbols"><g class="legendpoints"><path fill="#f15854" d="M26 6H14V-6h12z" class="legendundefined"/></g></g></g><path fill="none" d="M0 -9.5H143.16V9.5H0z" class="legendtoggle" cursor="pointer"/></g><g class="traces" transform="translate(0 223.5)"><text x="40" y="4.68" class="legendtext user-select-none" style="white-space:pre" fill="#178600" font-family="'Open Sans',verdana,arial,sans-serif" font-size="12">desktop</text><g class="layers"><g class="legendsymbols"><g class="legendpoints"><path fill="#5da5da" d="M26 6H14V-6h12z" class="legendundefined"/></g></g></g><path fill="none" d="M0 -9.5H143.16V9.5H0z" class="legendtoggle" cursor="pointer"/></g><g class="traces" transform="translate(0 242.5)"><text x="40" y="4.68" class="legendtext user-select-none" style="white-space:pre" fill="#178600" font-family="'Open Sans',verdana,arial,sans-serif" font-size="12">Shell Script (Zsh)</text><g class="layers"><g class="legendsymbols"><g class="legendpoints"><path fill="#faa43a" d="M26 6H14V-6h12z" class="legendundefined"/></g></g></g><path fill="none" d="M0 -9.5H143.16V9.5H0z" class="legendtoggle" cursor="pointer"/></g><g class="traces" transform="translate(0 261.5)"><text x="40" y="4.68" class="legendtext user-select-none" style="white-space:pre" fill="#178600" font-family="'Open Sans',verdana,arial,sans-serif" font-size="12">text</text><g class="layers"><g class="legendsymbols"><g class="legendpoints"><path fill="#60bd68" d="M26 6H14V-6h12z" class="legendundefined"/></g></g></g><path fill="none" d="M0 -9.5H143.16V9.5H0z" class="legendtoggle" cursor="pointer"/></g><g class="traces" transform="translate(0 280.5)"><text x="40" y="4.68" class="legendtext user-select-none" style="white-space:pre" fill="#178600" font-family="'Open Sans',verdana,arial,sans-serif" font-size="12">Properties</text><g class="layers"><g class="legendsymbols"><g class="legendpoints"><path fill="#f17cb0" d="M26 6H14V-6h12z" class="legendundefined"/></g></g></g><path fill="none" d="M0 -9.5H143.16V9.5H0z" class="legendtoggle" cursor="pointer"/></g><g class="traces" transform="translate(0 299.5)"><text x="40" y="4.68" class="legendtext user-select-none" style="white-space:pre" fill="#178600" font-family="'Open Sans',verdana,arial,sans-serif" font-size="12">Others</text><g class="layers"><g class="legendsymbols"><g class="legendpoints"><path fill="#b2912f" d="M26 6H14V-6h12z" class="legendundefined"/></g></g></g><path fill="none" d="M0 -9.5H143.16V9.5H0z" class="legendtoggle" cursor="pointer"/></g></g></g></g><g class="g-ytitle"><text x=".43" y="208" fill="#178600" class="ytitle" font-family="'Open Sans',verdana,arial,sans-serif" font-size="14" font-weight="400" text-anchor="middle" transform="translate(12.57) rotate(-90 .43 208)" style="white-space:pre">XP</text></g></g></svg>
